/* XPM */
static char *right1_xpm[] = {
/* width height num_colors chars_per_pixel */
"    32    32      256            2",
/* colors */
"`` c #040204",
"`. c #946684",
"`# c #742a24",
"`a c #3c263c",
"`b c #9c3e34",
"`c c #744644",
"`d c #c4969c",
"`e c #44324c",
"`f c #141a1c",
"`g c #c4725c",
"`h c #8c62bc",
"`i c #6c4684",
"`j c #2c222c",
"`k c #6c3674",
"`l c #844e9c",
"`m c #4c365c",
"`n c #9472d4",
"`o c #641e34",
"`p c #5c3264",
"`q c #8c5a8c",
"`r c #842e24",
"`s c #241e2c",
"`t c #0c120c",
"`u c #3c2644",
"`v c #2c2634",
"`w c #5c3a74",
"`x c #9462bc",
"`y c #8c3e64",
"`z c #9c7ae4",
"`A c #1c121c",
"`B c #a44e44",
"`C c #ecbe9c",
"`D c #1c1a1c",
"`E c #7c468c",
"`F c #6c3e7c",
"`G c #643674",
"`H c #0c1624",
"`I c #4c2a54",
"`J c #946acc",
"`K c #743e2c",
"`L c #f4a68c",
"`M c #94568c",
"`N c #64326c",
"`O c #845ab4",
"`P c #947a64",
"`Q c #d4a27c",
"`R c #64322c",
"`S c #d47a64",
"`T c #341e2c",
"`U c #7c366c",
"`V c #8456a4",
"`W c #9c72dc",
"`X c #542e5c",
"`Y c #8c3a3c",
"`Z c #3c2e4c",
"`0 c #34263c",
"`1 c #b45a44",
"`2 c #1c1e2c",
"`3 c #7c4e94",
"`4 c #9c6ed4",
"`5 c #945eb4",
"`6 c #6c2a54",
"`7 c #d4968c",
"`8 c #4c3254",
".` c #6c3a84",
".. c #54365c",
".# c #141214",
".a c #9c7ef4",
".b c #1c1e1c",
".c c #7c4a9c",
".d c #141614",
".e c #946edc",
".f c #8c5eac",
".g c #9462ac",
".h c #7c3224",
".i c #4c262c",
".j c #9c463c",
".k c #141e24",
".l c #b4827c",
".m c #744684",
".n c #6c3a74",
".o c #844eac",
".p c #5c366c",
".q c #8c362c",
".r c #242224",
".s c #0c0e1c",
".t c #442a4c",
".u c #9c7eec",
".v c #9c527c",
".w c #7c4a8c",
".x c #74427c",
".y c #946ed4",
".z c #643664",
".A c #34223c",
".B c #9c76dc",
".C c #5c2e64",
".D c #342a3c",
".E c #dc9a94",
".F c #543a64",
".G c #141624",
".H c #8c5ebc",
".I c #94668c",
".J c #742e2c",
".K c #442234",
".L c #9c4234",
".M c #845e54",
".N c #443654",
".O c #141a24",
".P c #c4765c",
".Q c #846ac4",
".R c #6c4a84",
".S c #2c2234",
".T c #84529c",
".U c #9472dc",
".V c #54225c",
".W c #5c326c",
".X c #3c2a44",
".Y c #2c263c",
".Z c #5c3e6c",
".0 c #9466c4",
".1 c #9c7aec",
".2 c #ac4e34",
".3 c #ecbea4",
".4 c #1c1a24",
".5 c #64367c",
".6 c #4c2e54",
".7 c #946ad4",
".8 c #7c3e54",
"#` c #ac8284",
"#. c #dc8664",
"## c #c45a34",
"#a c #944234",
"#b c #dc9284",
"#c c #442e54",
"#d c #8c56a4",
"#e c #342234",
"#f c #4c364c",
"#g c #0c121c",
"#h c #542e64",
"#i c #543664",
"#j c #1c1e24",
"#k c #14161c",
"#l c #8c5eb4",
"#m c #6c3a7c",
"#n c #8c3634",
"#o c #24222c",
"#p c #7c4a94",
"#q c #744284",
"#r c #64366c",
"#s c #9c76e4",
"#t c #342a44",
"#u c #000000",
"#v c #000000",
"#w c #000000",
"#x c #000000",
"#y c #000000",
"#z c #000000",
"#A c #000000",
"#B c #000000",
"#C c #000000",
"#D c #000000",
"#E c #000000",
"#F c #000000",
"#G c #000000",
"#H c #000000",
"#I c #000000",
"#J c #000000",
"#K c #000000",
"#L c #000000",
"#M c #000000",
"#N c #000000",
"#O c #000000",
"#P c #000000",
"#Q c #000000",
"#R c #000000",
"#S c #000000",
"#T c #000000",
"#U c #000000",
"#V c #000000",
"#W c #000000",
"#X c #000000",
"#Y c #000000",
"#Z c #000000",
"#0 c #000000",
"#1 c #000000",
"#2 c #000000",
"#3 c #000000",
"#4 c #000000",
"#5 c #000000",
"#6 c #000000",
"#7 c #000000",
"#8 c #000000",
"a` c #000000",
"a. c #000000",
"a# c #000000",
"aa c #000000",
"ab c #000000",
"ac c #000000",
"ad c #000000",
"ae c #000000",
"af c #000000",
"ag c #000000",
"ah c #000000",
"ai c #000000",
"aj c #000000",
"ak c #000000",
"al c #000000",
"am c #000000",
"an c #000000",
"ao c #000000",
"ap c #000000",
"aq c #000000",
"ar c #000000",
"as c #000000",
"at c #000000",
"au c #000000",
"av c #000000",
"aw c #000000",
"ax c #000000",
"ay c #000000",
"az c #000000",
"aA c #000000",
"aB c #000000",
"aC c #000000",
"aD c #000000",
"aE c #000000",
"aF c #000000",
"aG c #000000",
"aH c #000000",
"aI c #000000",
"aJ c #000000",
"aK c #000000",
"aL c #000000",
"aM c #000000",
"aN c #000000",
"aO c #000000",
"aP c #000000",
"aQ c #000000",
"aR c #000000",
"aS c #000000",
"aT c #000000",
"aU c #000000",
"aV c #000000",
"aW c #000000",
"aX c #000000",
"aY c #000000",
"aZ c #000000",
"a0 c #000000",
"a1 c #000000",
"a2 c #000000",
"a3 c #000000",
"a4 c #000000",
"a5 c #000000",
"a6 c #000000",
"a7 c #000000",
"a8 c #000000",
/* pixels */
"````````````````````````````````````````````````````````````````",
"````````````````````````````````````````````````````````````````",
"````````````````````````````````````````````````````````````````",
"````````````````````````````````````````````````````````````````",
"````````````````````````````````````````````````````````````````",
"`````````````````````````````t`D#k.d#k`f.#``````````````````````",
"``````````````````````````#k`s.S.D#t.D.S`s#k````````````````````",
"```````````````````````````f.S.W#p#d#p`p.S`f````````````````````",
"`````````````````````````f`u`p.w`J`W`J.w.p`u`f``````````````````",
"````````````````````````#k.6`3.0#s.1#s.0.``u`D``````````````````",
"````````````````````````.d#i`x.1#s#s#s.U`q#f#k``````````````````",
"`````````````````````````t.F#l.1`z.1.e.c.3`P.s``````````````````",
"````````````````````.O#j`I`p`F#l.f.o.f`C`.`e#k``````````````````",
"````````````````````.4#j#h`N.W.x.5.I`d#`.8.K.O``````````````````",
"````````````````````.4#j`X`N`p.C#r.l`Q.V#a`R.G``````````````````",
"````````````````````.O#j`X.W`p.C`7`g`r.q##`K`H``````````````````",
"``````````````````#k.b.O`X`N.W.C`7`g#a#b`L.M.s``````````````````",
"`````````````````f.A.X.t`X.W`p.W.P`1`b#.`S`c#g``````````````````",
"`````````````````f#c#m`N`N`p.W.W`B.j`Y.2#n.i.O#j`D``````````````",
"````````````````.d.F`l.C.W`N`p.C`3#q#h.C`N`u#j`s.4``````````````",
"`````````````f.4.Z#l.y`l.X`u`k`3`4.H.m`E.T`m`f.b.#``````````````",
"`````````````D#j.m`4.y.F#j.A`k`i.H`J`J`J`l#c`s.t.S`f````````````",
"`````````````f`s`i`4.Q.#`s.t`N`N#q`O.U.y.p.A`s.C.Y`D````````````",
"`````````````D#j.x`4.Q.4`X.W`G.T#r`p.C.W`j.4#j#j`s#j````````````",
"`````````````D.4`s`i.T.4.6`F`V.U.T`G.C`p.C`0.4.4`2#j````````````",
"`````````````````t`Z`m#j`X#q#l.1.y`V.n`p`k.t`f``````````````````",
"```````````````````t.4#j.t`F.f#s.a`J.w.W#h`u.b``````````````````",
"````````````````````````.d#i`5#s.1.0`E`p.S#j.4``````````````````",
"````````````````````````.##o.N#l.1.7#p.W.S.b#j``````````````````",
"```````````````````````````H#e`U`M.v`y`6.S.4````````````````````",
"``````````````````````````.k`j`o`#.h.J`o`j.4````````````````````",
"`````````````````````````````D#j#j#j#j#j.4``````````````````````"
};
