/* XPM */
static char *right3_xpm[] = {
/* width height num_colors chars_per_pixel */
"    32    32      256            2",
/* colors */
"`` c #040204",
"`. c #946684",
"`# c #6c2634",
"`a c #441e2c",
"`b c #9c3e34",
"`c c #744644",
"`d c #442e54",
"`e c #c4969c",
"`f c #141a1c",
"`g c #c4725c",
"`h c #744684",
"`i c #8c62bc",
"`j c #4c3254",
"`k c #6c3a74",
"`l c #7c56a4",
"`m c #2c1e2c",
"`n c #9c72dc",
"`o c #5c3264",
"`p c #743e2c",
"`q c #542a24",
"`r c #44324c",
"`s c #7c4a9c",
"`t c #241e2c",
"`u c #8c5a8c",
"`v c #643a74",
"`w c #0c0e1c",
"`x c #3c263c",
"`y c #946ac4",
"`z c #9c5a8c",
"`A c #54225c",
"`B c #ecbe9c",
"`C c #1c1a1c",
"`D c #2c2634",
"`E c #9c7ae4",
"`F c #643674",
"`G c #843624",
"`H c #0c1614",
"`I c #a44e44",
"`J c #844e94",
"`K c #843a74",
"`L c #8c5aac",
"`M c #947a64",
"`N c #7c2e1c",
"`O c #f4a68c",
"`P c #7c4e94",
"`Q c #74427c",
"`R c #64326c",
"`S c #4c1e2c",
"`T c #d4a27c",
"`U c #7c468c",
"`V c #543a64",
"`W c #946ed4",
"`X c #542e5c",
"`Y c #1c1e2c",
"`Z c #9c7efc",
"`0 c #944234",
"`1 c #14161c",
"`2 c #945eb4",
"`3 c #d4968c",
"`4 c #dc8664",
"`5 c #9462bc",
"`6 c #543264",
"`7 c #342234",
"`8 c #84529c",
".` c #4c262c",
".. c #1c1e1c",
".# c #34263c",
".a c #8c3634",
".b c #c45a34",
".c c #8c5ebc",
".d c #5c2a5c",
".e c #9462ac",
".f c #742644",
".g c #442234",
".h c #9c463c",
".i c #845e54",
".j c #4c2a54",
".k c #141e24",
".l c #d47a64",
".m c #6c3a84",
".n c #8456a4",
".o c #9c76dc",
".p c #5c366c",
".q c #6c3654",
".r c #64322c",
".s c #844e9c",
".t c #141214",
".u c #3c2a4c",
".v c #9c6acc",
".w c #9c7eec",
".x c #0c1624",
".y c #b45a44",
".z c #8c5eac",
".A c #ac8284",
".B c #842a4c",
".C c #74428c",
".D c #643664",
".E c #7c4a8c",
".F c #dc9a94",
".G c #54365c",
".H c #342a3c",
".I c #94668c",
".J c #441e34",
".K c #9c4234",
".L c #944e6c",
".M c #141a24",
".N c #c4765c",
".O c #74468c",
".P c #8c66c4",
".Q c #6c3e7c",
".R c #2c2234",
".S c #5c326c",
".T c #642644",
".U c #4c364c",
".V c #24222c",
".W c #8c56a4",
".X c #643a7c",
".Y c #0c121c",
".Z c #3c2644",
".0 c #946acc",
".1 c #ecbea4",
".2 c #1c1a24",
".3 c #9c7aec",
".4 c #64367c",
".5 c #8c362c",
".6 c #0c161c",
".7 c #ac4e34",
".8 c #842e24",
"#` c #744284",
"#. c #7c3e54",
"## c #dc9284",
"#a c #a47ef4",
"#b c #b4827c",
"#c c #844eac",
"#d c #4c2234",
"#e c #9466c4",
"#f c #8c3a3c",
"#g c #5c2e64",
"#h c #845aac",
"#i c #4c2e54",
"#j c #946edc",
"#k c #542e64",
"#l c #141624",
"#m c #34223c",
"#n c #1c1e24",
"#o c #74264c",
"#p c #9c76e4",
"#q c #8c5eb4",
"#r c #64366c",
"#s c #7c4a94",
"#t c #543664",
"#u c #342a44",
"#v c #000000",
"#w c #000000",
"#x c #000000",
"#y c #000000",
"#z c #000000",
"#A c #000000",
"#B c #000000",
"#C c #000000",
"#D c #000000",
"#E c #000000",
"#F c #000000",
"#G c #000000",
"#H c #000000",
"#I c #000000",
"#J c #000000",
"#K c #000000",
"#L c #000000",
"#M c #000000",
"#N c #000000",
"#O c #000000",
"#P c #000000",
"#Q c #000000",
"#R c #000000",
"#S c #000000",
"#T c #000000",
"#U c #000000",
"#V c #000000",
"#W c #000000",
"#X c #000000",
"#Y c #000000",
"#Z c #000000",
"#0 c #000000",
"#1 c #000000",
"#2 c #000000",
"#3 c #000000",
"#4 c #000000",
"#5 c #000000",
"#6 c #000000",
"#7 c #000000",
"#8 c #000000",
"a` c #000000",
"a. c #000000",
"a# c #000000",
"aa c #000000",
"ab c #000000",
"ac c #000000",
"ad c #000000",
"ae c #000000",
"af c #000000",
"ag c #000000",
"ah c #000000",
"ai c #000000",
"aj c #000000",
"ak c #000000",
"al c #000000",
"am c #000000",
"an c #000000",
"ao c #000000",
"ap c #000000",
"aq c #000000",
"ar c #000000",
"as c #000000",
"at c #000000",
"au c #000000",
"av c #000000",
"aw c #000000",
"ax c #000000",
"ay c #000000",
"az c #000000",
"aA c #000000",
"aB c #000000",
"aC c #000000",
"aD c #000000",
"aE c #000000",
"aF c #000000",
"aG c #000000",
"aH c #000000",
"aI c #000000",
"aJ c #000000",
"aK c #000000",
"aL c #000000",
"aM c #000000",
"aN c #000000",
"aO c #000000",
"aP c #000000",
"aQ c #000000",
"aR c #000000",
"aS c #000000",
"aT c #000000",
"aU c #000000",
"aV c #000000",
"aW c #000000",
"aX c #000000",
"aY c #000000",
"aZ c #000000",
"a0 c #000000",
"a1 c #000000",
"a2 c #000000",
"a3 c #000000",
"a4 c #000000",
"a5 c #000000",
"a6 c #000000",
"a7 c #000000",
"a8 c #000000",
/* pixels */
"````````````````````````````````````````````````````````````````",
"````````````````````````````````````````````````````````````````",
"````````````````````````````````````````````````````````````````",
"````````````````````````````````````````````````````````````````",
"````````````````````````````````````````````````````````````````",
"`````````````````````````````H`C`1`1`1`f.t``````````````````````",
"``````````````````````````.t`t.R.H.H.H.R`t`1````````````````````",
"```````````````````````````f.R.S#s.W#s`o.R`f````````````````````",
"`````````````````````````f.Z`o.E.0`n.0.E.p.Z`f``````````````````",
"`````````````````````````1#i`P#e`n.3#p#e.m.Z`C``````````````````",
"`````````````````````````1.G`5.3.3#p`E#j`u.U`1``````````````````",
"`````````````````````````H.G#q.3`E.3#j`P.1`M`w``````````````````",
"````````````````````.M.2.j`o.Q#q`L#c.z.1`.`r`1``````````````````",
"````````````````````.2#n`X`R.S`Q.4.I`e.A#..g.M``````````````````",
"````````````````````.M#n`X#r.S#g.D#b`T`A`0.r#l``````````````````",
"````````````````````.2.2`X.S`o#g`3`g.8.5.b`p.x``````````````````",
"````````````````````.2#n`X`R.S#g`3`g`0##`O.i`w``````````````````",
"````````````````````.M#n`X.S`o.S.N.y.K`4.l`c.Y``````````````````",
"````````````````````.2.2`X#r`F.S`I.h.a.7.a.`.M``````````````````",
"````````````````````.2#n.j.O`P#g#s.C#k.S`R.u`f``````````````````",
"`````````````````````f#n.Q`i.0#s`W`i#``U`8#t`1``````````````````",
"`````````````````````f`C`h.v#p.s`i`y`y#e`P`j`f``````````````````",
"``````````````````.t.V.R.X.P.o#h`U#q#p#p.X#m`C``````````````````",
"```````````````````f.R`R#g`l#a#p.X.Q.n`8`D.2#n``````````````````",
"```````````````````1.V#g#``8`i.w.n#`#r`F`o.#`f``````````````````",
"`````````````````f.R#i#``P.s`8#e`P`k#g`o`R`X.#.2`1``````````````",
"`````````````````f.j.C`L#h.n.s.E`6.j#k.S.S#r#g#n.2``````````````",
"`````````````````1.G#q`E.3#e.E.S.R`C.R`o`R.S`X#n.2``````````````",
"`````````````````f#d`K`Z.P`s`o.R`t.k`7.f.f#o.T`t#l``````````````",
"````````````````.M`a.B`z.L.q.R#n``.k`m`S#d`S`a#n`Y``````````````",
"````````````````.M.J`#`N`G.`.6```````H.k.M`Y.k``````````````````",
"``````````````````.2`Y`Y`t#n````````````````````````````````````"
};
