/* XPM */
static char *right2_xpm[] = {
/* width height num_colors chars_per_pixel */
"    32    32      256            2",
/* colors */
"`` c #040204",
"`. c #846e64",
"`# c #6c2644",
"`a c #7c4634",
"`b c #2c263c",
"`c c #9c463c",
"`d c #842a24",
"`e c #543a64",
"`f c #4c2634",
"`g c #2c1e2c",
"`h c #744a9c",
"`i c #643634",
"`j c #dc9e8c",
"`k c #041614",
"`l c #845aac",
"`m c #946acc",
"`n c #1c1a1c",
"`o c #64366c",
"`p c #4c2a5c",
"`q c #3c2644",
"`r c #643e74",
"`s c #7c56a4",
"`t c #4c3254",
"`u c #bc6e5c",
"`v c #141614",
"`w c #9c669c",
"`x c #9c76dc",
"`y c #242224",
"`z c #642e64",
"`A c #3c2e44",
"`B c #5c3264",
"`C c #b48294",
"`D c #84625c",
"`E c #bc5a3c",
"`F c #843a44",
"`G c #4c1e34",
"`H c #8c5eb4",
"`I c #241a24",
"`J c #643684",
"`K c #743e84",
"`L c #8c52a4",
"`M c #342e4c",
"`N c #844e94",
"`O c #fcce9c",
"`P c #d46e3c",
"`Q c #141e24",
"`R c #9c422c",
"`S c #7c223c",
"`T c #944e64",
"`U c #342634",
"`V c #b4522c",
"`W c #342244",
"`X c #7c4694",
"`Y c #fcae94",
"`Z c #5c2e5c",
"`0 c #442644",
"`1 c #6c3e74",
"`2 c #84529c",
"`3 c #141624",
"`4 c #9c7eec",
"`5 c #0c0e1c",
"`6 c #744e74",
"`7 c #9c464c",
"`8 c #5c2a24",
".` c #34222c",
".. c #743644",
".# c #dcb29c",
".a c #0c1614",
".b c #9472dc",
".c c #1c1e1c",
".d c #6c3a74",
".e c #543664",
".f c #bc7e74",
".g c #9c7aec",
".h c #5c3274",
".i c #9466c4",
".j c #342a44",
".k c #7c4a9c",
".l c #6c3e84",
".m c #8456ac",
".n c #74223c",
".o c #a44e3c",
".p c #542624",
".q c #946294",
".r c #643a74",
".s c #542e5c",
".t c #3c2a44",
".u c #4c365c",
".v c #c46e5c",
".w c #141a1c",
".x c #9c7ae4",
".y c #6c3264",
".z c #442e54",
".A c #8c4244",
".B c #9462bc",
".C c #241e24",
".D c #6c3a7c",
".E c #943a44",
".F c #342a3c",
".G c #7c4a8c",
".H c #6c427c",
".I c #84569c",
".J c #14121c",
".K c #0c1624",
".L c #a47a8c",
".M c #6c5254",
".N c #a4462c",
".O c #5c467c",
".P c #2c2234",
".Q c #6c362c",
".R c #eca28c",
".S c #8c5aac",
".T c #946ecc",
".U c #1c1a24",
".V c #643674",
".W c #54266c",
".X c #3c264c",
".Y c #4c325c",
".Z c #b4765c",
".0 c #14161c",
".1 c #9c62bc",
".2 c #9c76e4",
".3 c #24222c",
".4 c #64326c",
".5 c #5c326c",
".6 c #d4928c",
".7 c #945a74",
".8 c #bc6244",
"#` c #4c2234",
"#. c #7c2a54",
"## c #944254",
"#a c #8c5ec4",
"#b c #7c4e74",
"#c c #7c3644",
"#d c #e4b29c",
"#e c #9c72dc",
"#f c #8c4254",
"#g c #643a7c",
"#h c #8c56ac",
"#i c #442a4c",
"#j c #742644",
"#k c #542a2c",
"#l c #744284",
"#m c #141a24",
"#n c #0c121c",
"#o c #0c1a14",
"#p c #5c3674",
"#q c #443254",
"#r c #d46e44",
"#s c #34263c",
"#t c #5c2e64",
"#u c #6c3e7c",
"#v c #8452a4",
"#w c #342234",
"#x c #1c1e24",
"#y c #241e2c",
"#z c #7c4a94",
"#A c #000000",
"#B c #000000",
"#C c #000000",
"#D c #000000",
"#E c #000000",
"#F c #000000",
"#G c #000000",
"#H c #000000",
"#I c #000000",
"#J c #000000",
"#K c #000000",
"#L c #000000",
"#M c #000000",
"#N c #000000",
"#O c #000000",
"#P c #000000",
"#Q c #000000",
"#R c #000000",
"#S c #000000",
"#T c #000000",
"#U c #000000",
"#V c #000000",
"#W c #000000",
"#X c #000000",
"#Y c #000000",
"#Z c #000000",
"#0 c #000000",
"#1 c #000000",
"#2 c #000000",
"#3 c #000000",
"#4 c #000000",
"#5 c #000000",
"#6 c #000000",
"#7 c #000000",
"#8 c #000000",
"a` c #000000",
"a. c #000000",
"a# c #000000",
"aa c #000000",
"ab c #000000",
"ac c #000000",
"ad c #000000",
"ae c #000000",
"af c #000000",
"ag c #000000",
"ah c #000000",
"ai c #000000",
"aj c #000000",
"ak c #000000",
"al c #000000",
"am c #000000",
"an c #000000",
"ao c #000000",
"ap c #000000",
"aq c #000000",
"ar c #000000",
"as c #000000",
"at c #000000",
"au c #000000",
"av c #000000",
"aw c #000000",
"ax c #000000",
"ay c #000000",
"az c #000000",
"aA c #000000",
"aB c #000000",
"aC c #000000",
"aD c #000000",
"aE c #000000",
"aF c #000000",
"aG c #000000",
"aH c #000000",
"aI c #000000",
"aJ c #000000",
"aK c #000000",
"aL c #000000",
"aM c #000000",
"aN c #000000",
"aO c #000000",
"aP c #000000",
"aQ c #000000",
"aR c #000000",
"aS c #000000",
"aT c #000000",
"aU c #000000",
"aV c #000000",
"aW c #000000",
"aX c #000000",
"aY c #000000",
"aZ c #000000",
"a0 c #000000",
"a1 c #000000",
"a2 c #000000",
"a3 c #000000",
"a4 c #000000",
"a5 c #000000",
"a6 c #000000",
"a7 c #000000",
"a8 c #000000",
/* pixels */
"````````````````````````````````````````````````````````````````",
"````````````````````````````````````````````````````````````````",
"````````````````````````````````````````````````````````````````",
"````````````````````````````````````````````````````````````````",
"`````````````````````````````v.w.0`v.0.w`v``````````````````````",
"``````````````````````````.a#y#i.Y`e.Y.t#y#o````````````````````",
"````````````````````````.w`I.t.d.m.B#h.d.t#y.w``````````````````",
"````````````````````````.w.X.d`2.T.g.b`2.d.X`n``````````````````",
"````````````````````````.0.u#h.b.2.g.2#e`J`W`n``````````````````",
"`````````````````````````v.e.B.g.g.x.2#a`C.M#n``````````````````",
"`````````````````````n.U.U.e.m#e.T.b`m.q.#`.`5``````````````````",
"````````````````````#m.C.s`B`o`2`2.k`w`O#b`W`n``````````````````",
"````````````````````.U#x.s.4.5.r.W.L.#`6`F#k#m``````````````````",
"````````````````````#m.U.s.5`B#t.7.Z.Z`#.N`i`3``````````````````",
"````````````````````.U#x.s.4`B#t`j.v`d.o#r`a#n``````````````````",
"`````````````````````3#x.s.4.5#t.6`u`c.R`Y`D`5``````````````````",
"``````````````````.w.P`p`B`B.5.5.8`V.E`P`E`i.K``````````````````",
"``````````````````.0.F#l.4`B`B#t`T#f...A..`0#m``````````````````",
"````````````````#x`v.j`H#u.4.5.V.m`h.5.h`J#i`n``````````````````",
"````````````````#x`n`M.x.B`1`o`2.2.i#z`2#h`e.0``````````````````",
"````````````````.0`t`s.2.B.e`g.r`2`m.2`x`X#i.w#x.U``````````````",
"`````````````````v`e.1.g`r`A.X`Z.V#v.T`m.Y#y#x#y.U``````````````",
"````````````````.0`t`s#e`M`0.D.l`o#u.G.G#s`I#x.C.U``````````````",
"```````````````````v.F`L`o#u.S.g`H#u#t.5.4.t.U#y.U``````````````",
"```````````````````k#x.P`r`H.2.g`H`2#z`B.4#i.w#x.c``````````````",
"``````````````````.a`b.Y`l#e.g.i#z.r.e.5.4.t.U``````````````````",
"``````````````````.0`A#h.2.g.i`h`B.P`I`z.y`0#m``````````````````",
"```````````````````v.F`2#e`m#l`B.P`n`g.n.n#`#m``````````````````",
"``````````````````#m`U#.##`7.E#j#w`Q.C.`#w`g#m``````````````````",
"``````````````````#m`g`G.p`8#k#``g`Q``#m#x`Q````````````````````",
"````````````````````.a`Q#m#m#m`Q.a``````````````````````````````",
"````````````````````````````````````````````````````````````````"
};
