/* XPM */
static char *32wallB_xpm[] = {
/* width height num_colors chars_per_pixel */
"    32    32      256            2",
/* colors */
"`` c #3e3e43",
"`. c #48484f",
"`# c #56555d",
"`a c #434349",
"`b c #39393d",
"`c c #838396",
"`d c #5b5b69",
"`e c #636371",
"`f c #6a697b",
"`g c #727285",
"`h c #4f4f56",
"`i c #a4a4b8",
"`j c #7a7a8c",
"`k c #9696ab",
"`l c #8c8ca0",
"`m c #000000",
"`n c #000000",
"`o c #000000",
"`p c #000000",
"`q c #000000",
"`r c #000000",
"`s c #000000",
"`t c #000000",
"`u c #000000",
"`v c #000000",
"`w c #000000",
"`x c #000000",
"`y c #000000",
"`z c #000000",
"`A c #000000",
"`B c #000000",
"`C c #000000",
"`D c #000000",
"`E c #000000",
"`F c #000000",
"`G c #000000",
"`H c #000000",
"`I c #000000",
"`J c #000000",
"`K c #000000",
"`L c #000000",
"`M c #000000",
"`N c #000000",
"`O c #000000",
"`P c #000000",
"`Q c #000000",
"`R c #000000",
"`S c #000000",
"`T c #000000",
"`U c #000000",
"`V c #000000",
"`W c #000000",
"`X c #000000",
"`Y c #000000",
"`Z c #000000",
"`0 c #000000",
"`1 c #000000",
"`2 c #000000",
"`3 c #000000",
"`4 c #000000",
"`5 c #000000",
"`6 c #000000",
"`7 c #000000",
"`8 c #000000",
".` c #000000",
".. c #000000",
".# c #000000",
".a c #000000",
".b c #000000",
".c c #000000",
".d c #000000",
".e c #000000",
".f c #000000",
".g c #000000",
".h c #000000",
".i c #000000",
".j c #000000",
".k c #000000",
".l c #000000",
".m c #000000",
".n c #000000",
".o c #000000",
".p c #000000",
".q c #000000",
".r c #000000",
".s c #000000",
".t c #000000",
".u c #000000",
".v c #000000",
".w c #000000",
".x c #000000",
".y c #000000",
".z c #000000",
".A c #000000",
".B c #000000",
".C c #000000",
".D c #000000",
".E c #000000",
".F c #000000",
".G c #000000",
".H c #000000",
".I c #000000",
".J c #000000",
".K c #000000",
".L c #000000",
".M c #000000",
".N c #000000",
".O c #000000",
".P c #000000",
".Q c #000000",
".R c #000000",
".S c #000000",
".T c #000000",
".U c #000000",
".V c #000000",
".W c #000000",
".X c #000000",
".Y c #000000",
".Z c #000000",
".0 c #000000",
".1 c #000000",
".2 c #000000",
".3 c #000000",
".4 c #000000",
".5 c #000000",
".6 c #000000",
".7 c #000000",
".8 c #000000",
"#` c #000000",
"#. c #000000",
"## c #000000",
"#a c #000000",
"#b c #000000",
"#c c #000000",
"#d c #000000",
"#e c #000000",
"#f c #000000",
"#g c #000000",
"#h c #000000",
"#i c #000000",
"#j c #000000",
"#k c #000000",
"#l c #000000",
"#m c #000000",
"#n c #000000",
"#o c #000000",
"#p c #000000",
"#q c #000000",
"#r c #000000",
"#s c #000000",
"#t c #000000",
"#u c #000000",
"#v c #000000",
"#w c #000000",
"#x c #000000",
"#y c #000000",
"#z c #000000",
"#A c #000000",
"#B c #000000",
"#C c #000000",
"#D c #000000",
"#E c #000000",
"#F c #000000",
"#G c #000000",
"#H c #000000",
"#I c #000000",
"#J c #000000",
"#K c #000000",
"#L c #000000",
"#M c #000000",
"#N c #000000",
"#O c #000000",
"#P c #000000",
"#Q c #000000",
"#R c #000000",
"#S c #000000",
"#T c #000000",
"#U c #000000",
"#V c #000000",
"#W c #000000",
"#X c #000000",
"#Y c #000000",
"#Z c #000000",
"#0 c #000000",
"#1 c #000000",
"#2 c #000000",
"#3 c #000000",
"#4 c #000000",
"#5 c #000000",
"#6 c #000000",
"#7 c #000000",
"#8 c #000000",
"a` c #000000",
"a. c #000000",
"a# c #000000",
"aa c #000000",
"ab c #000000",
"ac c #000000",
"ad c #000000",
"ae c #000000",
"af c #000000",
"ag c #000000",
"ah c #000000",
"ai c #000000",
"aj c #000000",
"ak c #000000",
"al c #000000",
"am c #000000",
"an c #000000",
"ao c #000000",
"ap c #000000",
"aq c #000000",
"ar c #000000",
"as c #000000",
"at c #000000",
"au c #000000",
"av c #000000",
"aw c #000000",
"ax c #000000",
"ay c #000000",
"az c #000000",
"aA c #000000",
"aB c #000000",
"aC c #000000",
"aD c #000000",
"aE c #000000",
"aF c #000000",
"aG c #000000",
"aH c #000000",
"aI c #000000",
"aJ c #000000",
"aK c #000000",
"aL c #000000",
"aM c #000000",
"aN c #000000",
"aO c #000000",
"aP c #000000",
"aQ c #000000",
"aR c #000000",
"aS c #000000",
"aT c #000000",
"aU c #000000",
"aV c #000000",
"aW c #000000",
"aX c #000000",
"aY c #000000",
"aZ c #000000",
"a0 c #000000",
"a1 c #000000",
"a2 c #000000",
"a3 c #000000",
"a4 c #000000",
"a5 c #000000",
"a6 c #000000",
"a7 c #000000",
"a8 c #000000",
/* pixels */
"```.`#`a`````b`````c`.`d`.`a`a`a`.`.`.`a`a`a`e`f`b`b`b`g`d`a`#`a",
"`a`b`b`b`b`b`b`b`b`b`b`````a`````b`b`````````b`b`b`b`b`b`b`b`b`b",
"```d`.`a`a```````````a`b`b`````````````.`a`a```````````b`b`b`b``",
"`````a`.`.`a`````.`a`````b```a`.`h`a```.`h`h`a`````````````b`b`e",
"`a`h`f`g`c`e`#`e```a`a`b`b```a`g`d`h`h`#`d`d`.`a`a```.`.```b````",
"`#`#`g`e`g`f`f`e`c`.`a`b`b`a```i`j`d`d`#`d`d`#`f`.`d`k`c`b```#`b",
"`f`#`f`j`j`d`e`e`g`g`.```b`a```.`d`#`#`#`h`j`e`d`c`j`g`k`````a`b",
"`f`e`e`j`g`f`d`j`k`e`.`a`b```a```h`.`a`g`j`c`c`c`j`g`l`````````a",
"`d```j`g`f`f`d`e`e`a`.`.`b`b`a`#`a`l`g`g`j`g`g`f`f`g```````b```h",
"`a`d`.`d`f`````````````d`b```a`a`.`#`#`#`f`g`g`.`a`a```h```b````",
"```a`a`.`h`h`a```````e`b`b`b`#`.`.`.`.`h`.`.`.`.`````#```b`b````",
"```a`.`h`h`.`.`````d```b`b`b`b`#`.`.`.`a`.`.`.`#`d`#`````b``````",
"`a`.`````````````a```b`b`b`````````a```b`b`````````````b`b```a``",
"```.`h`f`e`````a`l`k`l`h`f`g`l`l`e`j```b`b`d`j`#`j`j`b```.`d`f`d",
"`#```.`d`c`g```.`f`l`h`e`g`j`j`j`#`d`f`b`b`e`f`c`g`g```a`f`l`c`j",
"`.`b`a```a```a`h`#`a`#`d`g`l`j`j`a```b`b```.`#`e`j`l```b`b```a`b",
"`````h`.`a`a`a```a```````b```b`b```b```e`.`b`````````````````a``",
"```a`a`.`h`.`a`a`a`a`a`a`a`a`h`b```h`h`````a`````a`.`d`h`a`h`a`a",
"`h`#`e`d`#`d`h`h`h`#`d`e`f`f`a`.`#`d`e`b`````````````#`d`#`#`e`d",
"`g`d`d`d`#`#`d`d`e`e`f`f`f`e`l`b`h`#`d`d`e`e`e`e`e`e`e`d`d`f`#`#",
"`j`j`#`#`h`#`f`f`f`f`g`g`g`f`g`a`a```e`f`j`g`f`f`e`e`f`f`f`e`f`.",
"`g`k`#`#`#`#`f`f`g`g`g`g`j`g`f`b`a`h`c`c`i`c`f`f`f`e`f`j`c`j`#`.",
"`e`g`#`#`h`#`f`f`f`g`g`j`g`f`d`b`a`.`l`f`j`f`f`e`d`d`e`f`g`l`d`d",
"`f`.`.`h`h`#`d`d`e`f`g`g`l`l`g`a`d`h`j`j`g`d`d`e`j`d`e`d`e`e`g`.",
"`d`h`h`.`h`.`a`.`h`#`d`d`f```a```a`.`a```a```.`h`h`a`a`a`a```.`#",
"`h`.`.```````````b`b```````````````````````a`a`a`a```a`````b```a",
"```````a`#`b`b`b```h`````````a`.`a`a`a`a```````b`b`b`b```b`````.",
"`.`.`f`e`#```#`f`e`a`h`#`g`e`d`d`e`l`h`.`a```````b`b`b`.`#`a`h`.",
"`e`e`f`e`.```#`j`f`h`e`j`j`j`d`f`f`e`j`h`c`j`j`h`h`b`.`d`a`#`h`h",
"`h`d`f`d`.`````a`d`h`g`j`g`e`e`f`g`k`#`j`i`c`f`.`a`b`a`.`.`g`f`.",
"`.`h`f`a`h`b`b`b`f`h`g`g`g`e`f`f`g`k`a`g`g`j`e`a`.`b`b`a`#`g`c`h",
"`b```a`h```b`b`b`c`.`k`f`g`d`#`#`d`f`j`h`#`h`a`a`l`b`b`.```.`h`#"
};
