/* XPM */
static char *spriteB6_xpm[] = {
/* width height num_colors chars_per_pixel */
"    32    32      256            2",
/* colors */
"`` c #ed1c24",
"`. c #5d4f53",
"`# c #28161e",
"`a c #31222b",
"`b c #302027",
"`c c #33242c",
"`d c #352831",
"`e c #352730",
"`f c #352931",
"`g c #301f26",
"`h c #28171e",
"`i c #53464c",
"`j c #170106",
"`k c #40343e",
"`l c #878b9a",
"`m c #837f8b",
"`n c #949fac",
"`o c #a4b9c9",
"`p c #a0b3c2",
"`q c #949eab",
"`r c #827e8a",
"`s c #40353e",
"`t c #150004",
"`u c #535c6d",
"`v c #a89fa1",
"`w c #bb9081",
"`x c #afc5d7",
"`y c #a1a8af",
"`z c #9d887f",
"`A c #9f918b",
"`B c #9c867d",
"`C c #a5aeb5",
"`D c #b9d2e3",
"`E c #bc9283",
"`F c #a79e9f",
"`G c #535d6d",
"`H c #5d4e52",
"`I c #29181f",
"`J c #4b3f48",
"`K c #979ca5",
"`L c #bd917d",
"`M c #c4673c",
"`N c #ba9f95",
"`O c #a1715d",
"`P c #95441f",
"`Q c #994f2d",
"`R c #99502e",
"`S c #94421d",
"`T c #a67762",
"`U c #c4aba1",
"`V c #c6683e",
"`W c #bc907c",
"`X c #989da5",
"`Y c #312129",
"`Z c #7f7f8d",
"`0 c #8d756e",
"`1 c #996147",
"`2 c #bf7b5e",
"`3 c #be7555",
"`4 c #bf785a",
"`5 c #c17d60",
"`6 c #c07c5e",
"`7 c #be7859",
"`8 c #bd7454",
".` c #26131a",
".. c #2a181f",
".# c #7f818b",
".a c #b5c4ce",
".b c #acb6c0",
".c c #aeb6bf",
".d c #afb9c2",
".e c #b0bbc4",
".f c #b0bac4",
".g c #adb6bf",
".h c #c4bec0",
".i c #bdbdbd",
".j c #eaf1f6",
".k c #ffffff",
".l c #f6ffff",
".m c #ecfcff",
".n c #e9f8ff",
".o c #ebfaff",
".p c #ecfbff",
".q c #c5c0c2",
".r c #c0bdbd",
".s c #c1c1c1",
".t c #c0c0c0",
".u c #e2dfe1",
".v c #eaeaed",
".w c #e4e1e4",
".x c #e0dcde",
".y c #31232b",
".z c #342226",
".A c #250f13",
".B c #32232b",
".C c #827f8b",
".D c #91909d",
".E c #898894",
".F c #91929f",
".G c #33252e",
".H c #92a3b2",
".I c #9a8277",
".J c #643729",
".K c #493740",
".L c #58454c",
".M c #533b3f",
".N c #685a62",
".O c #9597a5",
".P c #33252d",
".Q c #9aa4b2",
".R c #afacb2",
".S c #8e7068",
".T c #744f44",
".U c #503436",
".V c #665a63",
".W c #8d8b97",
".X c #9b9fac",
".Y c #7d7682",
".Z c #96a1b6",
".0 c #958686",
".1 c #8c583e",
".2 c #573c3d",
".3 c #6f6874",
".4 c #85828e",
".5 c #746f7b",
".6 c #312128",
".7 c #878793",
".8 c #9da4b5",
"#` c #8b7878",
"#. c #7c4e3c",
"## c #553a3c",
"#a c #493239",
"#b c #4e3336",
"#c c #533738",
"#d c #34252d",
"#e c #9ba9b6",
"#f c #aab6c5",
"#g c #72656e",
"#h c #4e3234",
"#i c #4d3337",
"#j c #473038",
"#k c #5d3c37",
"#l c #85533c",
"#m c #35282f",
"#n c #b0c5d3",
"#o c #cfe9f8",
"#p c #a0a9b6",
"#q c #88828d",
"#r c #898591",
"#s c #938a92",
"#t c #a59493",
"#u c #2e1e26",
"#v c #6d6e79",
"#w c #818b96",
"#x c #737681",
"#y c #6b6671",
"#z c #6b6672",
"#A c #6c6873",
"#B c #696672",
"#C c #646372",
"#D c #2d1b22",
"#E c #2e1b22",
"#F c #342127",
"#G c #311f25",
"#H c #322126",
"#I c #322026",
"#J c #332126",
"#K c #000000",
"#L c #000000",
"#M c #000000",
"#N c #000000",
"#O c #000000",
"#P c #000000",
"#Q c #000000",
"#R c #000000",
"#S c #000000",
"#T c #000000",
"#U c #000000",
"#V c #000000",
"#W c #000000",
"#X c #000000",
"#Y c #000000",
"#Z c #000000",
"#0 c #000000",
"#1 c #000000",
"#2 c #000000",
"#3 c #000000",
"#4 c #000000",
"#5 c #000000",
"#6 c #000000",
"#7 c #000000",
"#8 c #000000",
"a` c #000000",
"a. c #000000",
"a# c #000000",
"aa c #000000",
"ab c #000000",
"ac c #000000",
"ad c #000000",
"ae c #000000",
"af c #000000",
"ag c #000000",
"ah c #000000",
"ai c #000000",
"aj c #000000",
"ak c #000000",
"al c #000000",
"am c #000000",
"an c #000000",
"ao c #000000",
"ap c #000000",
"aq c #000000",
"ar c #000000",
"as c #000000",
"at c #000000",
"au c #000000",
"av c #000000",
"aw c #000000",
"ax c #000000",
"ay c #000000",
"az c #000000",
"aA c #000000",
"aB c #000000",
"aC c #000000",
"aD c #000000",
"aE c #000000",
"aF c #000000",
"aG c #000000",
"aH c #000000",
"aI c #000000",
"aJ c #000000",
"aK c #000000",
"aL c #000000",
"aM c #000000",
"aN c #000000",
"aO c #000000",
"aP c #000000",
"aQ c #000000",
"aR c #000000",
"aS c #000000",
"aT c #000000",
"aU c #000000",
"aV c #000000",
"aW c #000000",
"aX c #000000",
"aY c #000000",
"aZ c #000000",
"a0 c #000000",
"a1 c #000000",
"a2 c #000000",
"a3 c #000000",
"a4 c #000000",
"a5 c #000000",
"a6 c #000000",
"a7 c #000000",
"a8 c #000000",
/* pixels */
"````````````````````````````````````````````````````````````````",
"````````````````````````````````````````````````````````````````",
"````````````````````````````````````````````````````````````````",
"````````````````````````````````````````````````````````````````",
"````````````````````````````````````````````````````````````````",
"````````````````````````````````````````````````````````````````",
"````````````````````````````````````````````````````````````````",
"```````````````````.`#`a`b`c`d`e`e`f`c`g`a`h`.``````````````````",
"`````````````````i`j`k`l`m`n`o`p`p`o`q`r`l`s`j`i````````````````",
"`````````````````t`u`v`w`x`y`z`A`A`B`C`D`E`F`G`t`H``````````````",
"```````````````I`J`K`L`M`N`O`P`Q`R`S`T`U`V`W`X`J`I``````````````",
"```````````````Y`Z`0`1`2`3`4`5`6`6`5`7`8`2`1`0`Z`Y``````````````",
"``````````````.`...#.a.b.c.d.e.f.f.e.d.g.b.a.#...```````````````",
"``````````````.h.i.j.k.l.m.n.o.p.p.o.n.m.l.k.j.i.h``````````````",
"``````````````.q.r.s.t.t.u.v.w.x.x.w.v.u.t.t.s.r.q``````````````",
"```````````````h.y.z.A.B.C.D.E.F.F.E.D.C.B.A.z.y`h``````````````",
"``````````````.G.H.I.J.K.L.M.N.O.O.N.M.L.K.J.I.H.G``````````````",
"``````````````.P.Q.R.S.T.U.V.W.X.X.W.V.U.T.S.R.Q.P``````````````",
"```````````````g.Y.Z.0.1.2.3.4.5.5.4.3.2.1.0.Z.Y`g``````````````",
"``````````````.6.7.8#`#.###a#b#c#c#b#a###.#`.8.7.6``````````````",
"``````````````#d#e#f#g#h#i#j#k#l#l#k#j#i#h#g#f#e#d``````````````",
"``````````````#m#n#o#p`m#q#r#s#t#t#s#r#q`m#p#o#n#m``````````````",
"``````````````#u#v#w#x#y#z#A#B#C#C#B#A#z#y#x#w#v#u``````````````",
"``````````````#D#E#F#G#H#H#I#H#J#J#H#I#H#H#G#F#E#D``````````````",
"````````````````````````````````````````````````````````````````",
"````````````````````````````````````````````````````````````````",
"````````````````````````````````````````````````````````````````",
"````````````````````````````````````````````````````````````````",
"````````````````````````````````````````````````````````````````",
"````````````````````````````````````````````````````````````````",
"````````````````````````````````````````````````````````````````",
"````````````````````````````````````````````````````````````````"
};
