/* XPM */
static char *spriteB4_xpm[] = {
/* width height num_colors chars_per_pixel */
"    32    32      256            2",
/* colors */
"`` c #ed1c24",
"`. c #5f5155",
"`# c #695c5c",
"`a c #685b5f",
"`b c #645a5a",
"`c c #625a5a",
"`d c #635a5a",
"`e c #695b5f",
"`f c #352125",
"`g c #281820",
"`h c #47404d",
"`i c #453740",
"`j c #4e4751",
"`k c #555561",
"`l c #54525d",
"`m c #555662",
"`n c #4e4650",
"`o c #44363e",
"`p c #46404c",
"`q c #281821",
"`r c #28171d",
"`s c #22131b",
"`t c #625a61",
"`u c #a39fa9",
"`v c #9da2b1",
"`w c #a9b8c5",
"`x c #b6c8d4",
"`y c #b3c4d0",
"`z c #b6c8d3",
"`A c #aab9c6",
"`B c #9ea4b3",
"`C c #a3a0a9",
"`D c #625961",
"`E c #27151b",
"`F c #190308",
"`G c #708395",
"`H c #beaeab",
"`I c #bd7c61",
"`J c #b0c2d0",
"`K c #969191",
"`L c #8a5d49",
"`M c #8d6b5b",
"`N c #885b47",
"`O c #9c9899",
"`P c #bdd3e1",
"`Q c #be7e63",
"`R c #bcada9",
"`S c #718396",
"`T c #2c1b22",
"`U c #5b525d",
"`V c #8f8383",
"`W c #ab7155",
"`X c #c26236",
"`Y c #bd836b",
"`Z c #ae694a",
"`0 c #a64e26",
"`1 c #a9552f",
"`2 c #a64d25",
"`3 c #b06c4d",
"`4 c #c38b72",
"`5 c #c26337",
"`6 c #ab7054",
"`7 c #372a32",
"`8 c #a5b1c1",
".` c #ada3a1",
".. c #a58170",
".# c #c59c8b",
".a c #bd8871",
".b c #bd8c78",
".c c #c19684",
".d c #c19582",
".e c #c29685",
".f c #bc8b77",
".g c #bb866f",
".h c #a58171",
".i c #ada3a0",
".j c #2f1f26",
".k c #8f9ba7",
".l c #adc4d5",
".m c #9cb2c3",
".n c #9fb6c6",
".o c #a9c3d5",
".p c #acc6d7",
".q c #a9c2d4",
".r c #a8c1d2",
".s c #200c12",
".t c #29171e",
".u c #322731",
".v c #261a24",
".w c #392f38",
".x c #8c92a0",
".y c #9fa8b8",
".z c #9399a8",
".A c #9297a5",
".B c #69636a",
".C c #86919d",
".D c #7a8390",
".E c #684940",
".F c #44190e",
".G c #342029",
".H c #615058",
".I c #614b51",
".J c #6c5d65",
".K c #92919d",
".L c #605155",
".M c #3b323b",
".N c #bbcddd",
".O c #bad0e0",
".P c #a59693",
".Q c #8c6658",
".R c #6c4d48",
".S c #4f3538",
".T c #58444a",
".U c #79737e",
".V c #949cad",
".W c #66585c",
".X c #352933",
".Y c #9b9eab",
".Z c #8f8e9a",
".0 c #8a92a4",
".1 c #908182",
".2 c #7e4d39",
".3 c #523536",
".4 c #736e7b",
".5 c #9595a1",
".6 c #8e8891",
".7 c #605054",
".8 c #413c46",
"#` c #b9cedc",
"#. c #9394a1",
"## c #8c8d9c",
"#a c #7a717a",
"#b c #4f3233",
"#c c #4c3236",
"#d c #4d3942",
"#e c #674946",
"#f c #8c5c46",
"#g c #857e82",
"#h c #64646e",
"#i c #abbbc9",
"#j c #c4d8e7",
"#k c #a2acb8",
"#l c #827e8b",
"#m c #88838e",
"#n c #84808a",
"#o c #8b8186",
"#p c #9f8c8a",
"#q c #220f16",
"#r c #6e717c",
"#s c #848f9b",
"#t c #737580",
"#u c #6b6671",
"#v c #6b6672",
"#w c #6d6974",
"#x c #6a6874",
"#y c #656573",
"#z c #2f1d24",
"#A c #2e1b21",
"#B c #332026",
"#C c #311f26",
"#D c #322126",
"#E c #322026",
"#F c #332126",
"#G c #000000",
"#H c #000000",
"#I c #000000",
"#J c #000000",
"#K c #000000",
"#L c #000000",
"#M c #000000",
"#N c #000000",
"#O c #000000",
"#P c #000000",
"#Q c #000000",
"#R c #000000",
"#S c #000000",
"#T c #000000",
"#U c #000000",
"#V c #000000",
"#W c #000000",
"#X c #000000",
"#Y c #000000",
"#Z c #000000",
"#0 c #000000",
"#1 c #000000",
"#2 c #000000",
"#3 c #000000",
"#4 c #000000",
"#5 c #000000",
"#6 c #000000",
"#7 c #000000",
"#8 c #000000",
"a` c #000000",
"a. c #000000",
"a# c #000000",
"aa c #000000",
"ab c #000000",
"ac c #000000",
"ad c #000000",
"ae c #000000",
"af c #000000",
"ag c #000000",
"ah c #000000",
"ai c #000000",
"aj c #000000",
"ak c #000000",
"al c #000000",
"am c #000000",
"an c #000000",
"ao c #000000",
"ap c #000000",
"aq c #000000",
"ar c #000000",
"as c #000000",
"at c #000000",
"au c #000000",
"av c #000000",
"aw c #000000",
"ax c #000000",
"ay c #000000",
"az c #000000",
"aA c #000000",
"aB c #000000",
"aC c #000000",
"aD c #000000",
"aE c #000000",
"aF c #000000",
"aG c #000000",
"aH c #000000",
"aI c #000000",
"aJ c #000000",
"aK c #000000",
"aL c #000000",
"aM c #000000",
"aN c #000000",
"aO c #000000",
"aP c #000000",
"aQ c #000000",
"aR c #000000",
"aS c #000000",
"aT c #000000",
"aU c #000000",
"aV c #000000",
"aW c #000000",
"aX c #000000",
"aY c #000000",
"aZ c #000000",
"a0 c #000000",
"a1 c #000000",
"a2 c #000000",
"a3 c #000000",
"a4 c #000000",
"a5 c #000000",
"a6 c #000000",
"a7 c #000000",
"a8 c #000000",
/* pixels */
"````````````````````````````````````````````````````````````````",
"````````````````````````````````````````````````````````````````",
"````````````````````````````````````````````````````````````````",
"````````````````````````````````````````````````````````````````",
"````````````````````````````````````````````````````````````````",
"````````````````````````````````````````````````````````````````",
"````````````````````````````````````````````````````````````````",
"````````````````````````````````````````````````````````````````",
"````````````````````````````````````````````````````````````````",
"`````````````````````.`#`a`b`c`d`d`c`b`e`#`.````````````````````",
"```````````````````f`g`h`i`j`k`l`l`m`n`o`p`q`f``````````````````",
"`````````````````r`s`t`u`v`w`x`y`y`z`A`B`C`D`s`r````````````````",
"```````````````E`F`G`H`I`J`K`L`M`M`N`O`P`Q`R`S`F`E``````````````",
"```````````````T`U`V`W`X`Y`Z`0`1`1`2`3`4`5`6`V`U`T``````````````",
"```````````````7`8.`...#.a.b.c.d.d.e.f.g.#.h.i`8`7``````````````",
"``````````````.j.k.l.m.n.o.p.q.r.r.q.p.o.n.m.l.k.j``````````````",
"``````````````.s.t.u.v.w.x.y.z.A.A.z.y.x.w.v.u.t.s``````````````",
"````````````.B.C.D.E.F.G.H.I.J.K.K.J.I.H.G.F.E.D.C.B````````````",
"``````````.L.M.N.O.P.Q.R.S.T.U.V.V.U.T.S.R.Q.P.O.N.M.L``````````",
"``````````.W.X.Y.Z.0.1.2.3.4.5.6.6.5.4.3.2.1.0.Z.Y.X.W``````````",
"``````````.7.8#`#.###a#b#c#d#e#f#f#e#d#c#b#a###.#`.8.7``````````",
"````````````#g#h#i#j#k#l#m#n#o#p#p#o#n#m#l#k#j#i#h#g````````````",
"``````````````#q#r#s#t#u#v#w#x#y#y#x#w#v#u#t#s#r#q``````````````",
"``````````````#z#A#B#C#D#D#E#D#F#F#D#E#D#D#C#B#A#z``````````````",
"````````````````````````````````````````````````````````````````",
"````````````````````````````````````````````````````````````````",
"````````````````````````````````````````````````````````````````",
"````````````````````````````````````````````````````````````````",
"````````````````````````````````````````````````````````````````",
"````````````````````````````````````````````````````````````````",
"````````````````````````````````````````````````````````````````",
"````````````````````````````````````````````````````````````````"
};
