/* XPM */
static char *spriteB5_xpm[] = {
/* width height num_colors chars_per_pixel */
"    32    32      256            2",
/* colors */
"`` c #ed1c24",
"`. c #3b3b3b",
"`# c #13010a",
"`a c #352e3c",
"`b c #33232c",
"`c c #3b343f",
"`d c #434351",
"`e c #41404c",
"`f c #444451",
"`g c #3b333e",
"`h c #31212b",
"`i c #352e3b",
"`j c #13010b",
"`k c #29161d",
"`l c #25161d",
"`m c #625a61",
"`n c #a3a0a9",
"`o c #9da2b1",
"`p c #a9b8c5",
"`q c #b6c8d3",
"`r c #b3c4d0",
"`s c #aab9c6",
"`t c #9ea4b3",
"`u c #28151b",
"`v c #1a040a",
"`w c #718496",
"`x c #bdaeaa",
"`y c #bd7c61",
"`z c #b0c3d1",
"`A c #979192",
"`B c #8a5d49",
"`C c #8e6b5b",
"`D c #895b46",
"`E c #9c9999",
"`F c #bdd3e1",
"`G c #bf7e63",
"`H c #bcaca9",
"`I c #2c1b22",
"`J c #5b525d",
"`K c #8f8383",
"`L c #ab7155",
"`M c #c26236",
"`N c #bd836b",
"`O c #ae694a",
"`P c #a64e26",
"`Q c #a9552f",
"`R c #a64d25",
"`S c #b06c4d",
"`T c #c38b72",
"`U c #c26337",
"`V c #ab7054",
"`W c #35272f",
"`X c #a5b1c0",
"`Y c #ada3a1",
"`Z c #a58070",
"`0 c #c59c8b",
"`1 c #bd8871",
"`2 c #bd8c78",
"`3 c #c19684",
"`4 c #c19582",
"`5 c #c29685",
"`6 c #bc8b77",
"`7 c #bb866f",
"`8 c #a58171",
".` c #32232b",
".. c #909ca8",
".# c #acc4d4",
".a c #9cb2c3",
".b c #9fb6c6",
".c c #a9c3d5",
".d c #acc6d7",
".e c #a9c2d4",
".f c #a8c1d2",
".g c #28161d",
".h c #2a1920",
".i c #31262f",
".j c #261a24",
".k c #392f38",
".l c #8c92a0",
".m c #9fa8b8",
".n c #9399a8",
".o c #9297a5",
".p c #2f2129",
".q c #6d7380",
".r c #72574e",
".s c #43160c",
".t c #352029",
".u c #615058",
".v c #614b51",
".w c #6c5d65",
".x c #91909c",
".y c #a6b7c6",
".z c #b5aaa7",
".A c #866053",
".B c #664946",
".C c #4d3337",
".D c #574349",
".E c #7a737c",
".F c #9a9eac",
".G c #312027",
".H c #807c88",
".I c #99a2b6",
".J c #928382",
".K c #86543d",
".L c #55393a",
".M c #76717e",
".N c #9497a4",
".O c #878693",
".P c #817e89",
".Q c #9aa2b5",
".R c #92817f",
".S c #885740",
".T c #583e3f",
".U c #54424a",
".V c #5b474d",
".W c #544149",
".X c #33242c",
".Y c #949eaa",
".Z c #a3acbb",
".0 c #76656b",
".1 c #583530",
".2 c #4b2f32",
".3 c #40282e",
".4 c #512f2b",
".5 c #714230",
".6 c #34262d",
".7 c #abc0ce",
".8 c #c7dded",
"#` c #8e8f9c",
"#. c #6b606a",
"## c #72656d",
"#a c #716771",
"#b c #837172",
"#c c #a28275",
"#d c #36282f",
"#e c #919ca9",
"#f c #abbfcd",
"#g c #959fac",
"#h c #868592",
"#i c #888895",
"#j c #868794",
"#k c #838594",
"#l c #372830",
"#m c #32242b",
"#n c #31232a",
"#o c #302028",
"#p c #2f2028",
"#q c #2e1f28",
"#r c #000000",
"#s c #000000",
"#t c #000000",
"#u c #000000",
"#v c #000000",
"#w c #000000",
"#x c #000000",
"#y c #000000",
"#z c #000000",
"#A c #000000",
"#B c #000000",
"#C c #000000",
"#D c #000000",
"#E c #000000",
"#F c #000000",
"#G c #000000",
"#H c #000000",
"#I c #000000",
"#J c #000000",
"#K c #000000",
"#L c #000000",
"#M c #000000",
"#N c #000000",
"#O c #000000",
"#P c #000000",
"#Q c #000000",
"#R c #000000",
"#S c #000000",
"#T c #000000",
"#U c #000000",
"#V c #000000",
"#W c #000000",
"#X c #000000",
"#Y c #000000",
"#Z c #000000",
"#0 c #000000",
"#1 c #000000",
"#2 c #000000",
"#3 c #000000",
"#4 c #000000",
"#5 c #000000",
"#6 c #000000",
"#7 c #000000",
"#8 c #000000",
"a` c #000000",
"a. c #000000",
"a# c #000000",
"aa c #000000",
"ab c #000000",
"ac c #000000",
"ad c #000000",
"ae c #000000",
"af c #000000",
"ag c #000000",
"ah c #000000",
"ai c #000000",
"aj c #000000",
"ak c #000000",
"al c #000000",
"am c #000000",
"an c #000000",
"ao c #000000",
"ap c #000000",
"aq c #000000",
"ar c #000000",
"as c #000000",
"at c #000000",
"au c #000000",
"av c #000000",
"aw c #000000",
"ax c #000000",
"ay c #000000",
"az c #000000",
"aA c #000000",
"aB c #000000",
"aC c #000000",
"aD c #000000",
"aE c #000000",
"aF c #000000",
"aG c #000000",
"aH c #000000",
"aI c #000000",
"aJ c #000000",
"aK c #000000",
"aL c #000000",
"aM c #000000",
"aN c #000000",
"aO c #000000",
"aP c #000000",
"aQ c #000000",
"aR c #000000",
"aS c #000000",
"aT c #000000",
"aU c #000000",
"aV c #000000",
"aW c #000000",
"aX c #000000",
"aY c #000000",
"aZ c #000000",
"a0 c #000000",
"a1 c #000000",
"a2 c #000000",
"a3 c #000000",
"a4 c #000000",
"a5 c #000000",
"a6 c #000000",
"a7 c #000000",
"a8 c #000000",
/* pixels */
"````````````````````````````````````````````````````````````````",
"````````````````````````````````````````````````````````````````",
"````````````````````````````````````````````````````````````````",
"````````````````````````````````````````````````````````````````",
"````````````````````````````````````````````````````````````````",
"````````````````````````````````````````````````````````````````",
"```````````````````.`#`a`b`c`d`e`e`f`g`h`i`j`.``````````````````",
"`````````````````k`l`m`n`o`p`q`r`r`q`s`t`n`m`l`k````````````````",
"```````````````u`v`w`x`y`z`A`B`C`C`D`E`F`G`H`w`v`u``````````````",
"```````````````I`J`K`L`M`N`O`P`Q`Q`R`S`T`U`V`K`J`I``````````````",
"```````````````W`X`Y`Z`0`1`2`3`4`4`5`6`7`0`8`Y`X`W``````````````",
"``````````````.`...#.a.b.c.d.e.f.f.e.d.c.b.a.#...```````````````",
"``````````````.g.h.i.j.k.l.m.n.o.o.n.m.l.k.j.i.h.g``````````````",
"``````````````.p.q.r.s.t.u.v.w.x.x.w.v.u.t.s.r.q.p``````````````",
"```````````````W.y.z.A.B.C.D.E.F.F.E.D.C.B.A.z.y`W``````````````",
"``````````````.G.H.I.J.K.L.M.N.O.O.N.M.L.K.J.I.H.G``````````````",
"``````````````.G.P.Q.R.S.T.U.V.W.W.V.U.T.S.R.Q.P.G``````````````",
"``````````````.X.Y.Z.0.1.2.3.4.5.5.4.3.2.1.0.Z.Y.X``````````````",
"``````````````.6.7.8#`#.###a#b#c#c#b#a###.#`.8.7.6``````````````",
"``````````````#d#e#f#g#h.O#i#j#k#k#j#i.O#h#g#f#e#d``````````````",
"````````````````#l#m#n#o#o#o#p#q#q#p#o#o#o#n#m#l````````````````",
"````````````````````````````````````````````````````````````````",
"````````````````````````````````````````````````````````````````",
"````````````````````````````````````````````````````````````````",
"````````````````````````````````````````````````````````````````",
"````````````````````````````````````````````````````````````````",
"````````````````````````````````````````````````````````````````",
"````````````````````````````````````````````````````````````````",
"````````````````````````````````````````````````````````````````",
"````````````````````````````````````````````````````````````````",
"````````````````````````````````````````````````````````````````",
"````````````````````````````````````````````````````````````````"
};
