/* XPM */
static char *spriteB7_xpm[] = {
/* width height num_colors chars_per_pixel */
"    32    32      256            2",
/* colors */
"`` c #ed1c24",
"`. c #2d1d24",
"`# c #2d1a20",
"`a c #311c20",
"`b c #352120",
"`c c #3a2624",
"`d c #3b2723",
"`e c #3b2621",
"`f c #463339",
"`g c #6a4643",
"`h c #8c5e3d",
"`i c #b28941",
"`j c #e1ba5f",
"`k c #eac260",
"`l c #e4bb59",
"`m c #e6bd5b",
"`n c #694543",
"`o c #a1734e",
"`p c #cd9e52",
"`q c #ffd265",
"`r c #ffe364",
"`s c #fff399",
"`t c #fffcbb",
"`u c #fffab1",
"`v c #fff9af",
"`w c #fffcba",
"`x c #311d20",
"`y c #8f6240",
"`z c #cc9e51",
"`A c #eabf54",
"`B c #ffd665",
"`C c #f9d780",
"`D c #f6e5bb",
"`E c #f8efd9",
"`F c #f8edd2",
"`G c #f8efda",
"`H c #f8f0de",
"`I c #f6e5ba",
"`J c #34201f",
"`K c #af853e",
"`L c #ffd365",
"`M c #ffde6b",
"`N c #ffdd7f",
"`O c #fff5cd",
"`P c #fff8d9",
"`Q c #fff2c3",
"`R c #fff3c7",
"`S c #fff9da",
"`T c #342020",
"`U c #b1863f",
"`V c #ffd35b",
"`W c #ffed90",
"`X c #fffad1",
"`Y c #fffed9",
"`Z c #fffdd4",
"`0 c #ffffde",
"`1 c #fffaca",
"`2 c #ffe379",
"`3 c #fff1ab",
"`4 c #ffffe2",
"`5 c #fffed8",
"`6 c #2f1c21",
"`7 c #755845",
"`8 c #987752",
".` c #967d64",
".. c #93817e",
".# c #897267",
".a c #866e61",
".b c #88736b",
".c c #897163",
".d c #89673e",
".e c #886c54",
".f c #867068",
".g c #28161d",
".h c #2c1622",
".i c #2d1c30",
".j c #261324",
".k c #321b23",
".l c #564854",
".m c #5f5361",
".n c #594a56",
".o c #554653",
".p c #55495e",
".q c #594c5d",
".r c #5f535f",
".s c #29171e",
".t c #31232a",
".u c #362327",
".v c #220c0f",
".w c #31222a",
".x c #868591",
".y c #9797a4",
".z c #8e8f9b",
".A c #9699a6",
".B c #9699a5",
".C c #8e8e9a",
".D c #33262e",
".E c #95a7b5",
".F c #9f867b",
".G c #653728",
".H c #493740",
".I c #59464d",
".J c #533b3f",
".K c #695b63",
".L c #979aa8",
".M c #979aa7",
".N c #695b62",
".O c #33252c",
".P c #99a2b0",
".Q c #aba8ae",
".R c #8c6e66",
".S c #724b41",
".T c #4d3134",
".U c #645760",
".V c #8a8893",
".W c #989ca9",
".X c #301f26",
".Y c #7d7682",
".Z c #96a1b6",
".0 c #958686",
".1 c #8c583e",
".2 c #573c3d",
".3 c #6f6874",
".4 c #85828e",
".5 c #746f7b",
".6 c #312128",
".7 c #878793",
".8 c #9da4b5",
"#` c #8b7878",
"#. c #7c4e3c",
"## c #553a3c",
"#a c #493239",
"#b c #4e3336",
"#c c #533738",
"#d c #34252d",
"#e c #9ba9b6",
"#f c #aab6c5",
"#g c #72656e",
"#h c #4e3234",
"#i c #4d3337",
"#j c #473038",
"#k c #5d3c37",
"#l c #85533c",
"#m c #35282f",
"#n c #b0c5d3",
"#o c #cfe9f8",
"#p c #a0a9b6",
"#q c #837f8b",
"#r c #88828d",
"#s c #898591",
"#t c #938a92",
"#u c #a59493",
"#v c #2e1e26",
"#w c #6d6e79",
"#x c #818b96",
"#y c #737681",
"#z c #6b6671",
"#A c #6b6672",
"#B c #6c6873",
"#C c #696672",
"#D c #646372",
"#E c #2d1b22",
"#F c #2e1b22",
"#G c #342127",
"#H c #311f25",
"#I c #322126",
"#J c #322026",
"#K c #332126",
"#L c #000000",
"#M c #000000",
"#N c #000000",
"#O c #000000",
"#P c #000000",
"#Q c #000000",
"#R c #000000",
"#S c #000000",
"#T c #000000",
"#U c #000000",
"#V c #000000",
"#W c #000000",
"#X c #000000",
"#Y c #000000",
"#Z c #000000",
"#0 c #000000",
"#1 c #000000",
"#2 c #000000",
"#3 c #000000",
"#4 c #000000",
"#5 c #000000",
"#6 c #000000",
"#7 c #000000",
"#8 c #000000",
"a` c #000000",
"a. c #000000",
"a# c #000000",
"aa c #000000",
"ab c #000000",
"ac c #000000",
"ad c #000000",
"ae c #000000",
"af c #000000",
"ag c #000000",
"ah c #000000",
"ai c #000000",
"aj c #000000",
"ak c #000000",
"al c #000000",
"am c #000000",
"an c #000000",
"ao c #000000",
"ap c #000000",
"aq c #000000",
"ar c #000000",
"as c #000000",
"at c #000000",
"au c #000000",
"av c #000000",
"aw c #000000",
"ax c #000000",
"ay c #000000",
"az c #000000",
"aA c #000000",
"aB c #000000",
"aC c #000000",
"aD c #000000",
"aE c #000000",
"aF c #000000",
"aG c #000000",
"aH c #000000",
"aI c #000000",
"aJ c #000000",
"aK c #000000",
"aL c #000000",
"aM c #000000",
"aN c #000000",
"aO c #000000",
"aP c #000000",
"aQ c #000000",
"aR c #000000",
"aS c #000000",
"aT c #000000",
"aU c #000000",
"aV c #000000",
"aW c #000000",
"aX c #000000",
"aY c #000000",
"aZ c #000000",
"a0 c #000000",
"a1 c #000000",
"a2 c #000000",
"a3 c #000000",
"a4 c #000000",
"a5 c #000000",
"a6 c #000000",
"a7 c #000000",
"a8 c #000000",
/* pixels */
"````````````````````````````````````````````````````````````````",
"````````````````````````````````````````````````````````````````",
"````````````````````````````````````````````````````````````````",
"````````````````````````````````````````````````````````````````",
"````````````````````````````````````````````````````````````````",
"````````````````````````````````````````````````````````````````",
"````````````````````````````````````````````````````````````````",
"`````````````````.`#`a`b`c`d`e`e`e`e`d`c`b`a`#`.````````````````",
"```````````````.`f`g`h`i`j`k`l`m`m`l`k`j`i`h`g`f`.``````````````",
"```````````````#`n`o`p`q`r`s`t`u`v`w`s`r`q`p`o`n`#``````````````",
"```````````````x`y`z`A`B`C`D`E`F`G`H`I`C`B`A`z`y`x``````````````",
"```````````````J`K`L`M`N`O`P`O`O`Q`R`S`O`N`M`L`K`J``````````````",
"```````````````T`U`V`W`X`Y`Z`0`1`2`3`4`5`X`W`V`U`T``````````````",
"```````````````6`7`8.`...#.a.b.c.d.e.f.#...``8`7`6``````````````",
"``````````````.g.h.i.j.k.l.m.n.o.p.q.r.l.k.j.i.h.g``````````````",
"``````````````.s.t.u.v.w.x.y.z.A.B.C.y.x.w.v.u.t.s``````````````",
"``````````````.D.E.F.G.H.I.J.K.L.M.N.J.I.H.G.F.E.D``````````````",
"``````````````.O.P.Q.R.S.T.U.V.W.W.V.U.T.S.R.Q.P.O``````````````",
"``````````````.X.Y.Z.0.1.2.3.4.5.5.4.3.2.1.0.Z.Y.X``````````````",
"``````````````.6.7.8#`#.###a#b#c#c#b#a###.#`.8.7.6``````````````",
"``````````````#d#e#f#g#h#i#j#k#l#l#k#j#i#h#g#f#e#d``````````````",
"``````````````#m#n#o#p#q#r#s#t#u#u#t#s#r#q#p#o#n#m``````````````",
"``````````````#v#w#x#y#z#A#B#C#D#D#C#B#A#z#y#x#w#v``````````````",
"``````````````#E#F#G#H#I#I#J#I#K#K#I#J#I#I#H#G#F#E``````````````",
"````````````````````````````````````````````````````````````````",
"````````````````````````````````````````````````````````````````",
"````````````````````````````````````````````````````````````````",
"````````````````````````````````````````````````````````````````",
"````````````````````````````````````````````````````````````````",
"````````````````````````````````````````````````````````````````",
"````````````````````````````````````````````````````````````````",
"````````````````````````````````````````````````````````````````"
};
