/* XPM */
static char *spriteB3_xpm[] = {
/* width height num_colors chars_per_pixel */
"    32    32      256            2",
/* colors */
"`` c #ed1c24",
"`. c #5f5155",
"`# c #695c5c",
"`a c #685b5f",
"`b c #645a5a",
"`c c #625a5a",
"`d c #635a5a",
"`e c #695b5f",
"`f c #352125",
"`g c #281820",
"`h c #47404d",
"`i c #453740",
"`j c #4e4751",
"`k c #555561",
"`l c #54525d",
"`m c #555662",
"`n c #4e4650",
"`o c #44363e",
"`p c #46404c",
"`q c #281821",
"`r c #28171d",
"`s c #22131b",
"`t c #625a61",
"`u c #a39fa9",
"`v c #9da2b1",
"`w c #a9b8c5",
"`x c #b6c8d4",
"`y c #b3c4d0",
"`z c #b6c8d3",
"`A c #aab9c6",
"`B c #9ea4b3",
"`C c #a3a0a9",
"`D c #625961",
"`E c #27151b",
"`F c #190308",
"`G c #708395",
"`H c #beaeab",
"`I c #bd7c61",
"`J c #b0c2d0",
"`K c #969191",
"`L c #8a5d49",
"`M c #8d6b5b",
"`N c #885b47",
"`O c #9c9899",
"`P c #bdd3e1",
"`Q c #be7e63",
"`R c #bcada9",
"`S c #718396",
"`T c #2c1b22",
"`U c #5b525d",
"`V c #8f8383",
"`W c #ab7155",
"`X c #c26236",
"`Y c #bd836b",
"`Z c #ae694a",
"`0 c #a64e26",
"`1 c #a9552f",
"`2 c #a64d25",
"`3 c #b06c4d",
"`4 c #c38b72",
"`5 c #c26337",
"`6 c #ab7054",
"`7 c #372932",
"`8 c #a5b0bf",
".` c #ada2a0",
".. c #a58171",
".# c #c59c8b",
".a c #bd8871",
".b c #bd8c78",
".c c #c19684",
".d c #c19582",
".e c #c29685",
".f c #bc8b77",
".g c #bb866f",
".h c #2f1f27",
".i c #909eab",
".j c #adc6d6",
".k c #9cb2c2",
".l c #9fb6c6",
".m c #a9c3d5",
".n c #acc6d7",
".o c #a9c2d4",
".p c #a8c1d2",
".q c #200d13",
".r c #2b1e28",
".s c #332a35",
".t c #251923",
".u c #392f38",
".v c #8c92a0",
".w c #9fa8b8",
".x c #9399a8",
".y c #9297a5",
".z c #6c6a74",
".A c #838891",
".B c #60392d",
".C c #5c2712",
".D c #48221b",
".E c #341f28",
".F c #615058",
".G c #614b51",
".H c #6c5d65",
".I c #92919d",
".J c #3e3844",
".K c #b8c4d0",
".L c #9f857d",
".M c #997567",
".N c #8f7066",
".O c #6c4c47",
".P c #4e3538",
".Q c #58444a",
".R c #79737e",
".S c #949cad",
".T c #352832",
".U c #9c9fad",
".V c #9295a4",
".W c #8c95a9",
".X c #908081",
".Y c #7e4d39",
".Z c #523536",
".0 c #736e7b",
".1 c #9595a1",
".2 c #8e8891",
".3 c #413c46",
".4 c #b9cedd",
".5 c #9497a5",
".6 c #8d8e9e",
".7 c #79707a",
".8 c #4f3233",
"#` c #4d3236",
"#. c #4d3942",
"## c #674946",
"#a c #8c5c46",
"#b c #857e82",
"#c c #64646e",
"#d c #abbac7",
"#e c #c3d7e6",
"#f c #a2acb9",
"#g c #827e8b",
"#h c #88838e",
"#i c #84808a",
"#j c #8b8186",
"#k c #9f8c8a",
"#l c #220f16",
"#m c #6e717c",
"#n c #848f9b",
"#o c #737580",
"#p c #6b6671",
"#q c #6b6672",
"#r c #6d6974",
"#s c #6a6874",
"#t c #656573",
"#u c #2f1d24",
"#v c #2e1b21",
"#w c #332026",
"#x c #311f26",
"#y c #322126",
"#z c #322026",
"#A c #332126",
"#B c #000000",
"#C c #000000",
"#D c #000000",
"#E c #000000",
"#F c #000000",
"#G c #000000",
"#H c #000000",
"#I c #000000",
"#J c #000000",
"#K c #000000",
"#L c #000000",
"#M c #000000",
"#N c #000000",
"#O c #000000",
"#P c #000000",
"#Q c #000000",
"#R c #000000",
"#S c #000000",
"#T c #000000",
"#U c #000000",
"#V c #000000",
"#W c #000000",
"#X c #000000",
"#Y c #000000",
"#Z c #000000",
"#0 c #000000",
"#1 c #000000",
"#2 c #000000",
"#3 c #000000",
"#4 c #000000",
"#5 c #000000",
"#6 c #000000",
"#7 c #000000",
"#8 c #000000",
"a` c #000000",
"a. c #000000",
"a# c #000000",
"aa c #000000",
"ab c #000000",
"ac c #000000",
"ad c #000000",
"ae c #000000",
"af c #000000",
"ag c #000000",
"ah c #000000",
"ai c #000000",
"aj c #000000",
"ak c #000000",
"al c #000000",
"am c #000000",
"an c #000000",
"ao c #000000",
"ap c #000000",
"aq c #000000",
"ar c #000000",
"as c #000000",
"at c #000000",
"au c #000000",
"av c #000000",
"aw c #000000",
"ax c #000000",
"ay c #000000",
"az c #000000",
"aA c #000000",
"aB c #000000",
"aC c #000000",
"aD c #000000",
"aE c #000000",
"aF c #000000",
"aG c #000000",
"aH c #000000",
"aI c #000000",
"aJ c #000000",
"aK c #000000",
"aL c #000000",
"aM c #000000",
"aN c #000000",
"aO c #000000",
"aP c #000000",
"aQ c #000000",
"aR c #000000",
"aS c #000000",
"aT c #000000",
"aU c #000000",
"aV c #000000",
"aW c #000000",
"aX c #000000",
"aY c #000000",
"aZ c #000000",
"a0 c #000000",
"a1 c #000000",
"a2 c #000000",
"a3 c #000000",
"a4 c #000000",
"a5 c #000000",
"a6 c #000000",
"a7 c #000000",
"a8 c #000000",
/* pixels */
"````````````````````````````````````````````````````````````````",
"````````````````````````````````````````````````````````````````",
"````````````````````````````````````````````````````````````````",
"````````````````````````````````````````````````````````````````",
"````````````````````````````````````````````````````````````````",
"````````````````````````````````````````````````````````````````",
"````````````````````````````````````````````````````````````````",
"````````````````````````````````````````````````````````````````",
"````````````````````````````````````````````````````````````````",
"`````````````````````.`#`a`b`c`d`d`c`b`e`#`.````````````````````",
"```````````````````f`g`h`i`j`k`l`l`m`n`o`p`q`f``````````````````",
"`````````````````r`s`t`u`v`w`x`y`y`z`A`B`C`D`s`r````````````````",
"```````````````E`F`G`H`I`J`K`L`M`M`N`O`P`Q`R`S`F`E``````````````",
"```````````````T`U`V`W`X`Y`Z`0`1`1`2`3`4`5`6`V`U`T``````````````",
"```````````````7`8.`...#.a.b.c.d.d.e.f.g.#...``8`7``````````````",
"``````````````.h.i.j.k.l.m.n.o.p.p.o.n.m.l.k.j.i.h``````````````",
"``````````````.q.r.s.t.u.v.w.x.y.y.x.w.v.u.t.s.r.q``````````````",
"````````````.z.A.B.C.D.E.F.G.H.I.I.H.G.F.E.D.C.B.A.z````````````",
"````````````.J.K.L.M.N.O.P.Q.R.S.S.R.Q.P.O.N.M.L.K.J````````````",
"````````````.T.U.V.W.X.Y.Z.0.1.2.2.1.0.Z.Y.X.W.V.U.T````````````",
"````````````.3.4.5.6.7.8#`#.###a#a###.#`.8.7.6.5.4.3````````````",
"````````````#b#c#d#e#f#g#h#i#j#k#k#j#i#h#g#f#e#d#c#b````````````",
"``````````````#l#m#n#o#p#q#r#s#t#t#s#r#q#p#o#n#m#l``````````````",
"``````````````#u#v#w#x#y#y#z#y#A#A#y#z#y#y#x#w#v#u``````````````",
"````````````````````````````````````````````````````````````````",
"````````````````````````````````````````````````````````````````",
"````````````````````````````````````````````````````````````````",
"````````````````````````````````````````````````````````````````",
"````````````````````````````````````````````````````````````````",
"````````````````````````````````````````````````````````````````",
"````````````````````````````````````````````````````````````````",
"````````````````````````````````````````````````````````````````"
};
