/* XPM */
static char *spriteB8_xpm[] = {
/* width height num_colors chars_per_pixel */
"    32    32      256            2",
/* colors */
"`` c #ed1c24",
"`. c #4d3e43",
"`# c #24131b",
"`a c #382931",
"`b c #34262d",
"`c c #35262e",
"`d c #61555a",
"`e c #37262f",
"`f c #553834",
"`g c #654034",
"`h c #5b3834",
"`i c #563231",
"`j c #553131",
"`k c #553232",
"`l c #2c1a20",
"`m c #624542",
"`n c #916657",
"`o c #9b684c",
"`p c #aa794d",
"`q c #bf905b",
"`r c #c39257",
"`s c #c18e51",
"`t c #c28f53",
"`u c #311c21",
"`v c #805341",
"`w c #92604b",
"`x c #9a6d41",
"`y c #d2a64b",
"`z c #ffd665",
"`A c #ffe172",
"`B c #ffdd75",
"`C c #ffde74",
"`D c #ffde73",
"`E c #ffdd74",
"`F c #ffe173",
"`G c #2f1b21",
"`H c #7a4e42",
"`I c #a97946",
"`J c #d1a64f",
"`K c #fed466",
"`L c #ffd55f",
"`M c #ffe7a1",
"`N c #fff4ce",
"`O c #fff1c1",
"`P c #fff0c0",
"`Q c #fff4cd",
"`R c #321e20",
"`S c #966d3e",
"`T c #deb15b",
"`U c #f5c958",
"`V c #ffd364",
"`W c #fbe19e",
"`X c #faecc9",
"`Y c #fbf0d4",
"`Z c #fbefd3",
"`0 c #fbf2de",
"`1 c #fbf2db",
"`2 c #faecc7",
"`3 c #352120",
"`4 c #bc9143",
"`5 c #ffe169",
"`6 c #fff080",
"`7 c #fff0a2",
"`8 c #fff9d4",
".` c #fff8d4",
".. c #fff8ce",
".# c #fff7c9",
".a c #ffeca4",
".b c #fff1b7",
".c c #fffada",
".d c #321e1f",
".e c #9b7237",
".f c #e0b450",
".g c #eace85",
".h c #eadfc7",
".i c #f5e9ca",
".j c #f7eac7",
".k c #f5ecd3",
".l c #f4e4bc",
".m c #f4cd6b",
".n c #f5dea0",
".o c #f7eed5",
".p c #f5e8c9",
".q c #eadfc6",
".r c #28151c",
".s c #2b1414",
".t c #362320",
".u c #2e1b1c",
".v c #423237",
".w c #95949c",
".x c #a7aab3",
".y c #9c9ca6",
".z c #9a99a0",
".A c #9a9696",
".B c #9c9a9f",
".C c #a7abb5",
".D c #2f212a",
".E c #6d788b",
".F c #6e595b",
".G c #3b1412",
".H c #2d1d2a",
".I c #5a4e5a",
".J c #5a4953",
".K c #655a66",
".L c #8b8ea0",
".M c #8b91a8",
".N c #655c6b",
".O c #5a4952",
".P c #34272f",
".Q c #a3b2bf",
".R c #b5a8a3",
".S c #8b6454",
".T c #6e4e48",
".U c #503638",
".V c #59454a",
".W c #7b747e",
".X c #969dad",
".Y c #969cab",
".Z c #7b747d",
".0 c #59454b",
".1 c #312028",
".2 c #83818d",
".3 c #9aa4b7",
".4 c #8d7e7f",
".5 c #7e4d39",
".6 c #523536",
".7 c #736e7b",
".8 c #9595a1",
"#` c #8e8891",
"#. c #33252c",
"## c #9aa7b4",
"#a c #a9b6c6",
"#b c #736770",
"#c c #503233",
"#d c #4d3336",
"#e c #4d3942",
"#f c #674946",
"#g c #8c5c46",
"#h c #35282f",
"#i c #b0c6d4",
"#j c #cfe9f7",
"#k c #9fa7b4",
"#l c #827f8b",
"#m c #88838e",
"#n c #84808a",
"#o c #8b8186",
"#p c #9f8c8a",
"#q c #2e1e26",
"#r c #6d6e79",
"#s c #818b96",
"#t c #737681",
"#u c #6b6671",
"#v c #6b6672",
"#w c #6d6974",
"#x c #6a6874",
"#y c #656573",
"#z c #2d1b22",
"#A c #2e1b22",
"#B c #342127",
"#C c #311f25",
"#D c #322126",
"#E c #322026",
"#F c #332126",
"#G c #000000",
"#H c #000000",
"#I c #000000",
"#J c #000000",
"#K c #000000",
"#L c #000000",
"#M c #000000",
"#N c #000000",
"#O c #000000",
"#P c #000000",
"#Q c #000000",
"#R c #000000",
"#S c #000000",
"#T c #000000",
"#U c #000000",
"#V c #000000",
"#W c #000000",
"#X c #000000",
"#Y c #000000",
"#Z c #000000",
"#0 c #000000",
"#1 c #000000",
"#2 c #000000",
"#3 c #000000",
"#4 c #000000",
"#5 c #000000",
"#6 c #000000",
"#7 c #000000",
"#8 c #000000",
"a` c #000000",
"a. c #000000",
"a# c #000000",
"aa c #000000",
"ab c #000000",
"ac c #000000",
"ad c #000000",
"ae c #000000",
"af c #000000",
"ag c #000000",
"ah c #000000",
"ai c #000000",
"aj c #000000",
"ak c #000000",
"al c #000000",
"am c #000000",
"an c #000000",
"ao c #000000",
"ap c #000000",
"aq c #000000",
"ar c #000000",
"as c #000000",
"at c #000000",
"au c #000000",
"av c #000000",
"aw c #000000",
"ax c #000000",
"ay c #000000",
"az c #000000",
"aA c #000000",
"aB c #000000",
"aC c #000000",
"aD c #000000",
"aE c #000000",
"aF c #000000",
"aG c #000000",
"aH c #000000",
"aI c #000000",
"aJ c #000000",
"aK c #000000",
"aL c #000000",
"aM c #000000",
"aN c #000000",
"aO c #000000",
"aP c #000000",
"aQ c #000000",
"aR c #000000",
"aS c #000000",
"aT c #000000",
"aU c #000000",
"aV c #000000",
"aW c #000000",
"aX c #000000",
"aY c #000000",
"aZ c #000000",
"a0 c #000000",
"a1 c #000000",
"a2 c #000000",
"a3 c #000000",
"a4 c #000000",
"a5 c #000000",
"a6 c #000000",
"a7 c #000000",
"a8 c #000000",
/* pixels */
"````````````````````````````````````````````````````````````````",
"````````````````````````````````````````````````````````````````",
"````````````````````````````````````````````````````````````````",
"````````````````````````````````````````````````````````````````",
"````````````````````````````````````````````````````````````````",
"````````````````````````````````````````````````````````````````",
"````````````````````````````````````````````````````````````````",
"````````````````````````````````````````````````````````````````",
"`````````````````.`#`a`b`c`c`c`c`c`c`c`c`b`a`#`.````````````````",
"```````````````d`e`f`g`h`i`j`k`k`k`k`j`i`h`g`f`e`d``````````````",
"```````````````l`m`n`o`p`q`r`s`t`t`s`r`q`p`o`n`m`l``````````````",
"```````````````u`v`w`x`y`z`A`B`C`D`E`F`z`y`x`w`v`u``````````````",
"```````````````G`H`I`J`K`L`M`N`O`P`Q`M`L`K`J`I`H`G``````````````",
"```````````````R`S`T`U`V`W`X`Y`Z`0`1`2`W`V`U`T`S`R``````````````",
"```````````````3`4`5`6`7`8.`...#.a.b.c`8`7`6`5`4`3``````````````",
"``````````````.d.e.f.g.h.i.j.k.l.m.n.o.p.q.g.f.e.d``````````````",
"``````````````.r.s.t.u.v.w.x.y.z.A.B.C.w.v.u.t.s.r``````````````",
"``````````````.D.E.F.G.H.I.J.K.L.M.N.O.I.H.G.F.E.D``````````````",
"``````````````.P.Q.R.S.T.U.V.W.X.Y.Z.0.U.T.S.R.Q.P``````````````",
"``````````````.1.2.3.4.5.6.7.8#`#`.8.7.6.5.4.3.2.1``````````````",
"``````````````#.###a#b#c#d#e#f#g#g#f#e#d#c#b#a###.``````````````",
"``````````````#h#i#j#k#l#m#n#o#p#p#o#n#m#l#k#j#i#h``````````````",
"``````````````#q#r#s#t#u#v#w#x#y#y#x#w#v#u#t#s#r#q``````````````",
"``````````````#z#A#B#C#D#D#E#D#F#F#D#E#D#D#C#B#A#z``````````````",
"````````````````````````````````````````````````````````````````",
"````````````````````````````````````````````````````````````````",
"````````````````````````````````````````````````````````````````",
"````````````````````````````````````````````````````````````````",
"````````````````````````````````````````````````````````````````",
"````````````````````````````````````````````````````````````````",
"````````````````````````````````````````````````````````````````",
"````````````````````````````````````````````````````````````````"
};
