/* XPM */
static char *left2_xpm[] = {
/* width height num_colors chars_per_pixel */
"    32    32      256            2",
/* colors */
"`` c #040204",
"`. c #bc6a5c",
"`# c #642244",
"`a c #3c2a2c",
"`b c #744264",
"`c c #34222c",
"`d c #c4929c",
"`e c #9c423c",
"`f c #443e3c",
"`g c #8466bc",
"`h c #5c2a24",
"`i c #0c1a0c",
"`j c #84363c",
"`k c #744284",
"`l c #6c3264",
"`m c #9472dc",
"`n c #4c2a54",
"`o c #241e24",
"`p c #84529c",
"`q c #4c365c",
"`r c #4c1e34",
"`s c #64326c",
"`t c #9462bc",
"`u c #1c1a1c",
"`v c #5c2e64",
"`w c #441e2c",
"`x c #945eb4",
"`y c #ac4a2c",
"`z c #845aac",
"`A c #6c3a6c",
"`B c #c4866c",
"`C c #34262c",
"`D c #141e1c",
"`E c #744a8c",
"`F c #443a3c",
"`G c #9c7ae4",
"`H c #2c2634",
"`I c #946acc",
"`J c #041214",
"`K c #442e2c",
"`L c #f4aa94",
"`M c #945654",
"`N c #0c1624",
"`O c #4c3254",
"`P c #5c3a64",
"`Q c #743e7c",
"`R c #a46674",
"`S c #74223c",
"`T c #2c1e2c",
"`U c #643a7c",
"`V c #844e94",
"`W c #141214",
"`X c #3c323c",
"`Y c #8c4244",
"`Z c #3c1e2c",
"`0 c #8c6ed4",
"`1 c #9c3e2c",
"`2 c #7c3a44",
"`3 c #542a6c",
"`4 c #8c52a4",
"`5 c #542664",
"`6 c #5c3274",
"`7 c #8c5aac",
"`8 c #a47aec",
".` c #cc6a3c",
".. c #342a44",
".# c #7c466c",
".a c #9c4654",
".b c #5c3e6c",
".c c #8c62bc",
".d c #8c3244",
".e c #242224",
".f c #54365c",
".g c #4c263c",
".h c #9c62bc",
".i c #1c1e1c",
".j c #5c3264",
".k c #34263c",
".l c #7c4a8c",
".m c #9c7ef4",
".n c #9c6ed4",
".o c #e4b694",
".p c #14161c",
".q c #742a3c",
".r c #6c3e7c",
".s c #34223c",
".t c #eca28c",
".u c #9c463c",
".v c #141614",
".w c #74469c",
".x c #9c72dc",
".y c #542e5c",
".z c #8456a4",
".A c #64366c",
".B c #9466c4",
".C c #ac5644",
".D c #b48284",
".E c #9c7eec",
".F c #946adc",
".G c #0c0e1c",
".H c #a44e3c",
".I c #5c3674",
".J c #141224",
".K c #743e64",
".L c #8c5eb4",
".M c #cc6e44",
".N c #3c2a44",
".O c #5c4e8c",
".P c #8c66bc",
".Q c #543a64",
".R c #7c4a9c",
".S c #141a1c",
".T c #642e64",
".U c #6c427c",
".V c #342234",
".W c #d4a69c",
".X c #9c4244",
".Y c #5c2e24",
".Z c #8c362c",
".0 c #744684",
".1 c #6c3664",
".2 c #4c2e54",
".3 c #241e2c",
".4 c #8452a4",
".5 c #54222c",
".6 c #9466b4",
".7 c #1c1a24",
".8 c #5c2e6c",
"#` c #44264c",
"#. c #a47694",
"## c #442e4c",
"#a c #b48a94",
"#b c #b45234",
"#c c #54262c",
"#d c #9c525c",
"#e c #3c223c",
"#f c #3c2644",
"#g c #3c262c",
"#h c #7c223c",
"#i c #8c3254",
"#j c #946ed4",
"#k c #2c2234",
"#l c #643e84",
"#m c #542e64",
"#n c #8c56ac",
"#o c #7c4a74",
"#p c #5c4274",
"#q c #742e44",
"#r c #9c76e4",
"#s c #f4ae94",
"#t c #e4ba94",
"#u c #141a14",
"#v c #0c121c",
"#w c #3c2e44",
"#x c #845ab4",
"#y c #6c3a74",
"#z c #141e24",
"#A c #9c7aec",
"#B c #2c263c",
"#C c #4c325c",
"#D c #5c3a6c",
"#E c #844e9c",
"#F c #14121c",
"#G c #7c3a4c",
"#H c #8c5ab4",
"#I c #cc6a44",
"#J c #24222c",
"#K c #543664",
"#L c #1c1e24",
"#M c #5c326c",
"#N c #7c4a94",
"#O c #6c3e84",
"#P c #643674",
"#Q c #8c66c4",
"#R c #141a24",
"#S c #000000",
"#T c #000000",
"#U c #000000",
"#V c #000000",
"#W c #000000",
"#X c #000000",
"#Y c #000000",
"#Z c #000000",
"#0 c #000000",
"#1 c #000000",
"#2 c #000000",
"#3 c #000000",
"#4 c #000000",
"#5 c #000000",
"#6 c #000000",
"#7 c #000000",
"#8 c #000000",
"a` c #000000",
"a. c #000000",
"a# c #000000",
"aa c #000000",
"ab c #000000",
"ac c #000000",
"ad c #000000",
"ae c #000000",
"af c #000000",
"ag c #000000",
"ah c #000000",
"ai c #000000",
"aj c #000000",
"ak c #000000",
"al c #000000",
"am c #000000",
"an c #000000",
"ao c #000000",
"ap c #000000",
"aq c #000000",
"ar c #000000",
"as c #000000",
"at c #000000",
"au c #000000",
"av c #000000",
"aw c #000000",
"ax c #000000",
"ay c #000000",
"az c #000000",
"aA c #000000",
"aB c #000000",
"aC c #000000",
"aD c #000000",
"aE c #000000",
"aF c #000000",
"aG c #000000",
"aH c #000000",
"aI c #000000",
"aJ c #000000",
"aK c #000000",
"aL c #000000",
"aM c #000000",
"aN c #000000",
"aO c #000000",
"aP c #000000",
"aQ c #000000",
"aR c #000000",
"aS c #000000",
"aT c #000000",
"aU c #000000",
"aV c #000000",
"aW c #000000",
"aX c #000000",
"aY c #000000",
"aZ c #000000",
"a0 c #000000",
"a1 c #000000",
"a2 c #000000",
"a3 c #000000",
"a4 c #000000",
"a5 c #000000",
"a6 c #000000",
"a7 c #000000",
"a8 c #000000",
/* pixels */
"````````````````````````````````````````````````````````````````",
"````````````````````````````````````````````````````````````````",
"````````````````````````````````````````````````````````````````",
"````````````````````````````````````````````````````````````````",
"````````````````````````.S.p.v.p.S.S````````````````````````````",
"`````````````````````J.S.s`O#K`q.2#k.v``````````````````````````",
"``````````````````#F.3#k.j.R`t`x`k.2.3.7`u``````````````````````",
"``````````````````.S#k#M.l.B#A`G`7`k`n`o#R``````````````````````",
"``````````````````.S#k`5.c#A`G#r#r.L.U#L.7``````````````````````",
"``````````````````#v`X.D.B`I#A#A.m`I.0.7#u``````````````````````",
"``````````````````.G`f#t#..6`m#j.x.c.r#J#J`D````````````````````",
"``````````````````.S#k`v.o`d.w`p.4`k.j`s#k#R````````````````````",
"``````````````````#R`c`j`A#a.W`3#P.A`v#M.V.S````````````````````",
"``````````````````.p#g`y.q`M`B`R.A.j#M`s`H.S````````````````````",
"``````````````````#v`a.M.C.Z`e#s#o#m.j#M.V`D````````````````````",
"```````````````````J`F`L`L`..u.t`b.8.j`s#k.S````````````````````",
"``````````````````.p#g.H.`#b`1.`.K#m`s.j#m#f.S``````````````````",
"``````````````````#R.V#q#G`2#G#d.1.j#M.j`Q#C.S``````````````````",
"``````````````````.S#B`U#P`6#l#x.r#M#M#P`7.b.v``````````````````",
"``````````````````.v..`p`p`V`7#A#H`Q.A`p`8.O#v``````````````````",
"````````````````.7#L#k#y.B#r#j`7`k#f..#n#r.c.b`u`u``````````````",
"````````````````#L#L.3#e#x#j.c.r.j#`#f`q`0.n.l#L#R``````````````",
"````````````````.7.3#L.3.U#N.0`s.r#O.j.7`g`t.b#L.7``````````````",
"````````````````#L#L`T#M#M`v.A`p#r`I.l`v#E.Q.p``````````````````",
"````````````````#L.7#k`s.j`Q.4.z.x`G#Q.l.N`o`i``````````````````",
"``````````````````.S#k#M#M#K#D`k.L`m#A.B#p.N.p``````````````````",
"``````````````````.p.k.T`l#e.7.2`Q.L#r.E`t#D.v``````````````````",
"``````````````````#R`c`S`S`r#z#L`n`k#H#A.L#K.p``````````````````",
"```````````````````D`T`c.V`T`u#L`#`j.X.a#i.g#R``````````````````",
"````````````````````#v#R#L#z``#L`w.5.Y#c.5`c#R``````````````````",
"````````````````````````````````#R#z#R#R#z#R````````````````````",
"````````````````````````````````````````````````````````````````"
};
