/* XPM */
static char *left1_xpm[] = {
/* width height num_colors chars_per_pixel */
"    32    32      256            2",
/* colors */
"`` c #040204",
"`. c #9c7274",
"`# c #6c222c",
"`a c #342a34",
"`b c #6c4684",
"`c c #9c463c",
"`d c #34222c",
"`e c #4c423c",
"`f c #7c5eac",
"`g c #0c161c",
"`h c #ec9e84",
"`i c #542e5c",
"`j c #6c3a64",
"`k c #241a24",
"`l c #c4725c",
"`m c #944e6c",
"`n c #946acc",
"`o c #1c1a1c",
"`p c #5c366c",
"`q c #442a2c",
"`r c #7c4a94",
"`s c #8c3a3c",
"`t c #845ab4",
"`u c #9c76dc",
"`v c #7c466c",
"`w c #8c4274",
"`x c #541e34",
"`y c #141e1c",
"`z c #6c3a74",
"`A c #8462bc",
"`B c #9c5a8c",
"`C c #64326c",
"`D c #242224",
"`E c #442a4c",
"`F c #6c2e4c",
"`G c #b4563c",
"`H c #0c1624",
"`I c #5c3264",
"`J c #9c7eec",
"`K c #441e2c",
"`L c #fcce9c",
"`M c #844e9c",
"`N c #64366c",
"`O c #041204",
"`P c #b48aa4",
"`Q c #3c2e34",
"`R c #744e74",
"`S c #dcaa84",
"`T c #5c2a6c",
"`U c #9472dc",
"`V c #1c1e2c",
"`W c #9c3e2c",
"`X c #a47aec",
"`Y c #7c468c",
"`Z c #6c4284",
"`0 c #9466c4",
"`1 c #2c222c",
"`2 c #4c325c",
"`3 c #7c2e1c",
"`4 c #8456a4",
"`5 c #643a7c",
"`6 c #744684",
"`7 c #ac5e54",
"`8 c #34263c",
".` c #5c3e6c",
".. c #141614",
".# c #7c3a5c",
".a c #e49a84",
".b c #1c1e1c",
".c c #8c5eb4",
".d c #9c7aec",
".e c #4c2a54",
".f c #643a6c",
".g c #0c0e1c",
".h c #7c2e34",
".i c #ac829c",
".j c #342a44",
".k c #a44a34",
".l c #8c5aac",
".m c #744264",
".n c #241e24",
".o c #dc825c",
".p c #946ecc",
".q c #44363c",
".r c #7c4aac",
".s c #9c7ae4",
".t c #7c4e74",
".u c #5c264c",
".v c #8c62bc",
".w c #242624",
".x c #c45e34",
".y c #14162c",
".z c #f4aa94",
".A c #5c2e64",
".B c #9c422c",
".C c #74427c",
".D c #842e24",
".E c #8c56a4",
".F c #744a8c",
".G c #5c4a84",
".H c #141a1c",
".I c #8c5ec4",
".J c #a47274",
".K c #742a2c",
".L c #342a3c",
".M c #3c262c",
".N c #eca68c",
".O c #542e64",
".P c #1c1a24",
".Q c #4c2a44",
".R c #7c4e94",
".S c #944234",
".T c #9c76e4",
".U c #7c4a74",
".V c #5c224c",
".W c #141e24",
".X c #743e7c",
".Y c #24222c",
".Z c #442e4c",
".0 c #b45e44",
".1 c #5c326c",
".2 c #9c7ef4",
".3 c #44264c",
".4 c #84529c",
".5 c #643674",
".6 c #0c120c",
".7 c #bc9294",
".8 c #3c2a44",
"#` c #dcae94",
"#. c #946294",
"## c #3c2644",
"#a c #9c72dc",
"#b c #a44a44",
"#c c #7c3224",
"#d c #5c4274",
"#e c #4c2e5c",
"#f c #dc8664",
"#g c #8c66c4",
"#h c #141a24",
"#i c #7c4a8c",
"#j c #0c121c",
"#k c #9466cc",
"#l c #2c2234",
"#m c #8456ac",
"#n c #74468c",
"#o c #14161c",
"#p c #1c1e24",
"#q c #8c5ebc",
"#r c #643a74",
"#s c #74426c",
"#t c #241e2c",
"#u c #946ed4",
"#v c #5c2e6c",
"#w c #9c4234",
"#x c #744284",
"#y c #000000",
"#z c #000000",
"#A c #000000",
"#B c #000000",
"#C c #000000",
"#D c #000000",
"#E c #000000",
"#F c #000000",
"#G c #000000",
"#H c #000000",
"#I c #000000",
"#J c #000000",
"#K c #000000",
"#L c #000000",
"#M c #000000",
"#N c #000000",
"#O c #000000",
"#P c #000000",
"#Q c #000000",
"#R c #000000",
"#S c #000000",
"#T c #000000",
"#U c #000000",
"#V c #000000",
"#W c #000000",
"#X c #000000",
"#Y c #000000",
"#Z c #000000",
"#0 c #000000",
"#1 c #000000",
"#2 c #000000",
"#3 c #000000",
"#4 c #000000",
"#5 c #000000",
"#6 c #000000",
"#7 c #000000",
"#8 c #000000",
"a` c #000000",
"a. c #000000",
"a# c #000000",
"aa c #000000",
"ab c #000000",
"ac c #000000",
"ad c #000000",
"ae c #000000",
"af c #000000",
"ag c #000000",
"ah c #000000",
"ai c #000000",
"aj c #000000",
"ak c #000000",
"al c #000000",
"am c #000000",
"an c #000000",
"ao c #000000",
"ap c #000000",
"aq c #000000",
"ar c #000000",
"as c #000000",
"at c #000000",
"au c #000000",
"av c #000000",
"aw c #000000",
"ax c #000000",
"ay c #000000",
"az c #000000",
"aA c #000000",
"aB c #000000",
"aC c #000000",
"aD c #000000",
"aE c #000000",
"aF c #000000",
"aG c #000000",
"aH c #000000",
"aI c #000000",
"aJ c #000000",
"aK c #000000",
"aL c #000000",
"aM c #000000",
"aN c #000000",
"aO c #000000",
"aP c #000000",
"aQ c #000000",
"aR c #000000",
"aS c #000000",
"aT c #000000",
"aU c #000000",
"aV c #000000",
"aW c #000000",
"aX c #000000",
"aY c #000000",
"aZ c #000000",
"a0 c #000000",
"a1 c #000000",
"a2 c #000000",
"a3 c #000000",
"a4 c #000000",
"a5 c #000000",
"a6 c #000000",
"a7 c #000000",
"a8 c #000000",
/* pixels */
"````````````````````````````````````````````````````````````````",
"````````````````````````````````````````````````````````````````",
"````````````````````````````````````````````````````````````````",
"````````````````````````````````````````````````````````````````",
"````````````````````````````````````````````````````````````````",
"````````````````````````.H.H#o...H`o````````````````````````````",
"`````````````````````D.H#l`8.L.j`8#t.H``````````````````````````",
"````````````````````.H#p.e#x.E.4`z##.H``````````````````````````",
"``````````````````.H#l`i.C.l`U#a.4#r.3#p#h``````````````````````",
"``````````````````.H#l`T`t#a.d.d`n#m.f#p.P``````````````````````",
"``````````````````#o.L.t.p.T.d.T.2`n`6.P`o``````````````````````",
"``````````````````.g`e`L#..I.d.s.d#k`b#p#o``````````````````````",
"``````````````````#o#l`R#``P.r.l.c`r`I`i#l.H````````````````````",
"``````````````````#h`d`F`..7.i.5`Z`z.A`N`8.H````````````````````",
"``````````````````#h.M.B.V`.`S#s`I.A.1`I#l.P````````````````````",
"```````````````````H.M.x`W.D#b.N`v.O`C.1`d.W````````````````````",
"``````````````````.g.q`h.a`7`c.N.U.O`C.1#t.H.H``````````````````",
"```````````````````g`Q`l#f.0#w.o.m`T`I.1`E`E##.P.y``````````````",
"````````````````#p#h`d.h.k#w`s`G`j#v`I`C`C`z`I#p.P``````````````",
"````````````````#p#p#l`I.1.A.5.R.5`I.1`I.A#x.F#p#o``````````````",
"````````````````.H.P`8`M#i`6.4#a#m.X`i#t`6`0#g.F`8..````````````",
"````````````#o.P`E#l#l`6.v`n`n`n`r#r#e`o.8`f.d.E.j.H````````````",
"````````````.P`V`i##.n.e`A#a#g#n#r`C`i#l.6.G`X`M.L#o````````````",
"````````````.P.n#p#p#p.P`i.1.A`I`M#x`I.1`k.G`X.4.j..````````````",
"`````````````o#p.P.P#l`i`I.A`C`Y.p.v#x.1`k.`#m.L#l..````````````",
"``````````````````.H#l`C.1.5.F`0.s#k#i`C.Y.8`2..`O``````````````",
"``````````````````.P#l`i.A.C.c.d`J`0#n`i#l#h..``````````````````",
"``````````````````.P#t#p.e#x.l.s.d`n`6#p.H``````````````````````",
"``````````````````#p#p#p#e#x#q.2#k#d#t`o.w``````````````````````",
"````````````````````.y.n.u.#`m`B`w.e..``````````````````````````",
"````````````````````.P#p`x.K#c`3`#`K#h``````````````````````````",
"````````````````````````.P`V.P`V`V.P````````````````````````````"
};
