/* XPM */
static char *left3_xpm[] = {
/* width height num_colors chars_per_pixel */
"    32    32      256            2",
/* colors */
"`` c #040204",
"`. c #9c7274",
"`# c #742a2c",
"`a c #242624",
"`b c #744e74",
"`c c #3c1e2c",
"`d c #4c2a54",
"`e c #6c3a5c",
"`f c #a44a34",
"`g c #ec9e84",
"`h c #0c161c",
"`i c #9c5a8c",
"`j c #c4725c",
"`k c #241e24",
"`l c #4c423c",
"`m c #8c6acc",
"`n c #8c3e64",
"`o c #5c2a6c",
"`p c #8c3a3c",
"`q c #7c4a94",
"`r c #6c4284",
"`s c #9c76dc",
"`t c #3c262c",
"`u c #1c1624",
"`v c #7c529c",
"`w c #845ab4",
"`x c #7c321c",
"`y c #541e34",
"`z c #141e24",
"`A c #342224",
"`B c #5c3264",
"`C c #7c468c",
"`D c #44363c",
"`E c #8c62bc",
"`F c #543264",
"`G c #0c1624",
"`H c #9c72dc",
"`I c #74427c",
"`J c #9c7eec",
"`K c #3c2644",
"`L c #542e54",
"`M c #744264",
"`N c #c45e34",
"`O c #fcce9c",
"`P c #9472dc",
"`Q c #944234",
"`R c #8c56a4",
"`S c #64326c",
"`T c #34263c",
"`U c #b4563c",
"`V c #dcaa84",
"`W c #bc9294",
"`X c #2c222c",
"`Y c #946ac4",
"`Z c #7c4aac",
"`0 c #1c1e24",
"`1 c #8c5ec4",
"`2 c #7c264c",
"`3 c #641a34",
"`4 c #74428c",
"`5 c #ac829c",
"`6 c #141614",
"`7 c #643a6c",
"`8 c #844e94",
".` c #9c7aec",
".. c #84529c",
".# c #8c5aac",
".a c #7c2e34",
".b c #44264c",
".c c #9c422c",
".d c #342a44",
".e c #946ed4",
".f c #0c0e1c",
".g c #742644",
".h c #7c4a74",
".i c #4c2234",
".j c #4c2e54",
".k c #6c3a74",
".l c #dc825c",
".m c #24222c",
".n c #9c7ae4",
".o c #3c2e34",
".p c #1c1a1c",
".q c #842e24",
".r c #5c224c",
".s c #34223c",
".t c #5c366c",
".u c #9466c4",
".v c #14162c",
".w c #744684",
".x c #a47ef4",
".y c #542e64",
".z c #7c466c",
".A c #64366c",
".B c #342a34",
".C c #ac5e54",
".D c #f4aa94",
".E c #946ecc",
".F c #141a1c",
".G c #643a7c",
".H c #8456a4",
".I c #8c5eac",
".J c #9c463c",
".K c #a47274",
".L c #a44a44",
".M c #eca68c",
".N c #946294",
".O c #241e2c",
".P c #8c4664",
".Q c #5c2e64",
".R c #9c3e2c",
".S c #7c4e94",
".T c #6c4684",
".U c #9c76e4",
".V c #442a2c",
".W c #7c3224",
".X c #542234",
".Y c #34222c",
".Z c #5c326c",
".0 c #8c66c4",
".1 c #744284",
".2 c #9c7ef4",
".3 c #3c2a44",
".4 c #542e5c",
".5 c #74426c",
".6 c #8c56ac",
".7 c #dcae94",
".8 c #e49a84",
"#` c #2c2234",
"#. c #b48aa4",
"## c #6c2e4c",
"#a c #64223c",
"#b c #b45e44",
"#c c #dc8664",
"#d c #141a24",
"#e c #74468c",
"#f c #442a4c",
"#g c #0c121c",
"#h c #7c4e74",
"#i c #6c3e74",
"#j c #946acc",
"#k c #1c1e2c",
"#l c #14161c",
"#m c #643a74",
"#n c #844e9c",
"#o c #8452a4",
"#p c #9c4234",
"#q c #4c223c",
"#r c #4c2e5c",
"#s c #1c1a24",
"#t c #643674",
"#u c #342a3c",
"#v c #8c5eb4",
"#w c #000000",
"#x c #000000",
"#y c #000000",
"#z c #000000",
"#A c #000000",
"#B c #000000",
"#C c #000000",
"#D c #000000",
"#E c #000000",
"#F c #000000",
"#G c #000000",
"#H c #000000",
"#I c #000000",
"#J c #000000",
"#K c #000000",
"#L c #000000",
"#M c #000000",
"#N c #000000",
"#O c #000000",
"#P c #000000",
"#Q c #000000",
"#R c #000000",
"#S c #000000",
"#T c #000000",
"#U c #000000",
"#V c #000000",
"#W c #000000",
"#X c #000000",
"#Y c #000000",
"#Z c #000000",
"#0 c #000000",
"#1 c #000000",
"#2 c #000000",
"#3 c #000000",
"#4 c #000000",
"#5 c #000000",
"#6 c #000000",
"#7 c #000000",
"#8 c #000000",
"a` c #000000",
"a. c #000000",
"a# c #000000",
"aa c #000000",
"ab c #000000",
"ac c #000000",
"ad c #000000",
"ae c #000000",
"af c #000000",
"ag c #000000",
"ah c #000000",
"ai c #000000",
"aj c #000000",
"ak c #000000",
"al c #000000",
"am c #000000",
"an c #000000",
"ao c #000000",
"ap c #000000",
"aq c #000000",
"ar c #000000",
"as c #000000",
"at c #000000",
"au c #000000",
"av c #000000",
"aw c #000000",
"ax c #000000",
"ay c #000000",
"az c #000000",
"aA c #000000",
"aB c #000000",
"aC c #000000",
"aD c #000000",
"aE c #000000",
"aF c #000000",
"aG c #000000",
"aH c #000000",
"aI c #000000",
"aJ c #000000",
"aK c #000000",
"aL c #000000",
"aM c #000000",
"aN c #000000",
"aO c #000000",
"aP c #000000",
"aQ c #000000",
"aR c #000000",
"aS c #000000",
"aT c #000000",
"aU c #000000",
"aV c #000000",
"aW c #000000",
"aX c #000000",
"aY c #000000",
"aZ c #000000",
"a0 c #000000",
"a1 c #000000",
"a2 c #000000",
"a3 c #000000",
"a4 c #000000",
"a5 c #000000",
"a6 c #000000",
"a7 c #000000",
"a8 c #000000",
/* pixels */
"````````````````````````````````````````````````````````````````",
"````````````````````````````````````````````````````````````````",
"````````````````````````````````````````````````````````````````",
"````````````````````````````````````````````````````````````````",
"````````````````````````````````````````````````````````````````",
"````````````````````````.F.F#l`6.F.p````````````````````````````",
"````````````````````.m.F`X`T#u.d`T.O.F``````````````````````````",
"````````````````````.F`0`d`4`R...k`K.F``````````````````````````",
"``````````````````.F#`.4`I.#`P`H#o#m.b`0#d``````````````````````",
"``````````````````.F#``o`w`H.`.`#j.H`7`0`u``````````````````````",
"``````````````````#l#u#h.E.U.`.U.2#j.w`0.p``````````````````````",
"``````````````````.f`l`O.N`1.`.n.`.u.T#s#l``````````````````````",
"``````````````````#l#``b.7#.`Z.##v`q.t.4#`.F````````````````````",
"``````````````````#d.Y##`.`W`5#t`r.k.Q`S`T.F````````````````````",
"``````````````````#d`t.c.r`.`V.5`B.Q.Z`B#`.p````````````````````",
"```````````````````G`t`N.R.q.L.M.z.y`S.Z.s.F````````````````````",
"``````````````````.f`D`g.8.C.J.M.h.y`S`B#`.F````````````````````",
"```````````````````h.o`j#c#b#p.l`M`o`B.Z.s.F````````````````````",
"``````````````````#d.Y.a`f#p`p`U`e.Z#t`B#`.F````````````````````",
"``````````````````.F#``S`B.Q.t#n.Z.1.S.Z.s.F````````````````````",
"``````````````````#l#u#n`q.w#o.U.S`1#j`q#u#l````````````````````",
"``````````````````#l`T.w`1`Y.u.u...0`s`R#u#g````````````````````",
"``````````````````.F#``d.0.`#j#e..#j`P`q.3`k.p``````````````````",
"``````````````````#s`k#s.T`R`q.Q`m.x#j`B`S#f.F``````````````````",
"```````````````````h.m.4.A.A#i.S.U.e..`q#t`K`6``````````````````",
"````````````````.F`T.j`S`B.Z`S#e`1.I.S...w`F.s`0.v``````````````",
"````````````````.F#f#t`B.Z`B#r`d`I#n...##v`8`B`0.v``````````````",
"````````````````.F#f.A.Z.A`K.p`0`d.1.#.`.`#j.T`0.p``````````````",
"````````````````#d#q`2.g`2#q#d.p.O.j`4`w.2.6#a#s#s``````````````",
"`````````````````z`c.i.i.i`c#d```h#``L.P`i`n`3`0#s``````````````",
"``````````````````#d`z#d`0`z```````h`X`x`x`#`y#s#s``````````````",
"`````````````````````````````````````u`k`0#k`0``````````````````"
};
