/* XPM */
static char *32floorB_xpm[] = {
/* width height num_colors chars_per_pixel */
"    32    32      256            2",
/* colors */
"`` c #535352",
"`. c #535352",
"`# c #535352",
"`a c #535352",
"`b c #535352",
"`c c #535352",
"`d c #535352",
"`e c #535352",
"`f c #535352",
"`g c #535352",
"`h c #535352",
"`i c #535352",
"`j c #535352",
"`k c #535352",
"`l c #535352",
"`m c #535352",
"`n c #535352",
"`o c #535352",
"`p c #535352",
"`q c #535352",
"`r c #535352",
"`s c #535352",
"`t c #535352",
"`u c #535352",
"`v c #535352",
"`w c #535352",
"`x c #535352",
"`y c #535352",
"`z c #535352",
"`A c #535352",
"`B c #535352",
"`C c #535352",
"`D c #535352",
"`E c #535352",
"`F c #535352",
"`G c #535352",
"`H c #535352",
"`I c #535352",
"`J c #535352",
"`K c #535352",
"`L c #535352",
"`M c #535352",
"`N c #535352",
"`O c #535352",
"`P c #535352",
"`Q c #535352",
"`R c #535352",
"`S c #535352",
"`T c #535352",
"`U c #535352",
"`V c #535352",
"`W c #535352",
"`X c #535352",
"`Y c #535352",
"`Z c #535352",
"`0 c #535352",
"`1 c #535352",
"`2 c #535352",
"`3 c #535352",
"`4 c #535352",
"`5 c #535352",
"`6 c #535352",
"`7 c #535352",
"`8 c #535352",
".` c #535352",
".. c #535352",
".# c #535352",
".a c #535352",
".b c #535352",
".c c #535352",
".d c #535352",
".e c #535352",
".f c #535352",
".g c #535352",
".h c #535352",
".i c #535352",
".j c #535352",
".k c #535352",
".l c #535352",
".m c #535352",
".n c #535352",
".o c #535352",
".p c #535352",
".q c #535352",
".r c #535352",
".s c #535352",
".t c #535352",
".u c #535352",
".v c #535352",
".w c #535352",
".x c #535352",
".y c #535352",
".z c #535352",
".A c #535352",
".B c #535352",
".C c #535352",
".D c #535352",
".E c #535352",
".F c #535352",
".G c #535352",
".H c #535352",
".I c #535352",
".J c #535352",
".K c #535352",
".L c #535352",
".M c #535352",
".N c #535352",
".O c #535352",
".P c #535352",
".Q c #535352",
".R c #535352",
".S c #535352",
".T c #535352",
".U c #535352",
".V c #535352",
".W c #535352",
".X c #535352",
".Y c #535352",
".Z c #535352",
".0 c #535352",
".1 c #535352",
".2 c #535352",
".3 c #535352",
".4 c #535352",
".5 c #535352",
".6 c #535352",
".7 c #535352",
".8 c #535352",
"#` c #535352",
"#. c #535352",
"## c #535352",
"#a c #535352",
"#b c #535352",
"#c c #535352",
"#d c #535352",
"#e c #535352",
"#f c #535352",
"#g c #535352",
"#h c #535352",
"#i c #535352",
"#j c #535352",
"#k c #535352",
"#l c #535352",
"#m c #535352",
"#n c #535352",
"#o c #535352",
"#p c #535352",
"#q c #535352",
"#r c #535352",
"#s c #535352",
"#t c #535352",
"#u c #535352",
"#v c #535352",
"#w c #535352",
"#x c #535352",
"#y c #535352",
"#z c #535352",
"#A c #535352",
"#B c #535352",
"#C c #535352",
"#D c #535352",
"#E c #535352",
"#F c #535352",
"#G c #535352",
"#H c #535352",
"#I c #535352",
"#J c #535352",
"#K c #535352",
"#L c #535352",
"#M c #535352",
"#N c #535352",
"#O c #535352",
"#P c #535352",
"#Q c #535352",
"#R c #535352",
"#S c #535352",
"#T c #535352",
"#U c #535352",
"#V c #535352",
"#W c #535352",
"#X c #535352",
"#Y c #535352",
"#Z c #535352",
"#0 c #535352",
"#1 c #535352",
"#2 c #535352",
"#3 c #535352",
"#4 c #535352",
"#5 c #535352",
"#6 c #535352",
"#7 c #535352",
"#8 c #535352",
"a` c #535352",
"a. c #535352",
"a# c #535352",
"aa c #535352",
"ab c #535352",
"ac c #535352",
"ad c #535352",
"ae c #535352",
"af c #535352",
"ag c #535352",
"ah c #535352",
"ai c #535352",
"aj c #535352",
"ak c #535352",
"al c #535352",
"am c #535352",
"an c #535352",
"ao c #535352",
"ap c #535352",
"aq c #535352",
"ar c #535352",
"as c #535352",
"at c #535352",
"au c #535352",
"av c #535352",
"aw c #535352",
"ax c #535352",
"ay c #535352",
"az c #535352",
"aA c #535352",
"aB c #535352",
"aC c #535352",
"aD c #535352",
"aE c #535352",
"aF c #535352",
"aG c #535352",
"aH c #535352",
"aI c #535352",
"aJ c #535352",
"aK c #535352",
"aL c #535352",
"aM c #535352",
"aN c #535352",
"aO c #535352",
"aP c #535352",
"aQ c #535352",
"aR c #535352",
"aS c #535352",
"aT c #535352",
"aU c #535352",
"aV c #535352",
"aW c #535352",
"aX c #535352",
"aY c #535352",
"aZ c #535352",
"a0 c #535352",
"a1 c #535352",
"a2 c #535352",
"a3 c #535352",
"a4 c #535352",
"a5 c #535352",
"a6 c #535352",
"a7 c #535352",
"a8 c #535352",
/* pixels */
"```.`#`#`#`#`#`#`#`a`b`c`d`c`e`f```.`#`#`#`#`#`#`#`a`b`c`d`c`e`f",
"`e`e`e`e`e`e`e`e`e`e`f`e`e`e`f`f`e`e`e`e`e`e`e`e`e`e`f`e`e`e`f`g",
"`b`f`f`f`f`f`f`f`f`f`f`h`f`f`f`f`b`f`f`e`e`f`f`f`f`f`f`f`f`f`h`i",
"`b`f`f`f`f`j`f`f`f`f`h`i`g`f`f`f`b`f`e`c`c`e`f`f`f`f`f`f`f`k`f`h",
"`b`f`f`f`f`f`f`f`f`f`h`i`g`f`f`f`b`f`e`c`d`c`e`f`f`f`f`f`k`l`k`f",
"`b`f`f`f`f`f`f`f`f`f`f`h`f`f`f`f`b`f`f`e`e`e`f`f`f`f`f`f`f`k`f`f",
"`b`f`f`f`f`f`f`f`f`f`f`f`f`f`f`f`b`f`f`f`f`f`f`f`e`k`f`f`f`f`f`f",
"`b`f`f`f`f`f`f`f`f`f`f`f`f`f`f`f`b`f`f`f`f`f`f`e`m`n`k`f`f`f`f`f",
"`b`f`f`f`j`f`f`f`f`f`f`f`f`f`f`f`b`f`f`e`g`h`f`f`e`k`f`f`f`f`f`f",
"`b`f`f`f`f`f`f`f`f`f`f`f`f`f`f`f`b`f`f`e`o`g`f`f`f`f`f`b`e`f`f`f",
"`b`f`f`f`f`f`f`f`f`h`f`f`f`f`f`f`b`f`f`f`h`f`f`f`f`f`b`p`q`e`f`f",
"`b`f`f`f`f`f`f`f`h`i`h`f`f`f`f`f`b`f`f`f`f`f`f`f`f`f`f`b`e`f`f`f",
"`b`f`f`f`f`f`f`f`h`i`h`f`f`f`f`f`b`f`f`f`f`f`f`f`f`f`f`f`f`f`f`f",
"`b`f`f`f`f`f`f`f`f`h`f`f`f`f`f`f`b`f`f`f`f`f`e`h`h`f`f`f`f`f`h`r",
"`e`h`h`h`h`h`h`h`h`h`h`h`h`h`h`h`e`h`h`h`h`f`#`s`t`r`h`h`h`k`u`v",
"`s`i`i`i`i`i`i`i`i`i`s`i`i`i`s`s`i`i`i`s`i`i`o`w`w`x`s`i`s`y`z`A",
"`j`B`C`D`E`E`E`E`E`C`e`F`F`F`f`h`b`B`F`e`C`C`f`k`e`G`e`F`F`H`h`k",
"`f`f`I`j`e`e`e`e`b`b`f`e`e`e`f`f`e`e`e`f`e`e`f`f`b`e`f`e`e`e`f`f",
"`x`k`i`h`f`f`f`b`J`J`f`k`h`f`f`h`o`f`F`e`f`f`f`f`e`f`f`e`f`h`f`f",
"`x`h`h`f`f`f`e`F`b`f`x`K`x`h`f`h`o`h`e`f`f`j`f`f`j`f`e`F`f`i`h`f",
"`e`f`f`h`f`f`f`e`f`f`k`s`r`f`f`f`e`f`f`e`f`f`f`h`L`h`f`e`L`y`h`f",
"`b`f`h`M`h`f`f`f`f`f`f`h`f`f`f`h`e`f`e`#`e`f`f`f`f`f`k`f`h`h`f`f",
"`b`f`h`i`h`f`f`f`f`f`f`f`f`f`k`y`N`h`O`P`O`h`h`h`j`O`Q`O`h`h`r`k",
"`e`f`f`h`f`e`h`f`f`f`f`f`f`f`r`z`x`i`i`R`i`i`s`s`o`i`t`i`i`s`S`T",
"`o`h`f`f`e`U`V`h`f`f`f`f`f`h`g`W`f`C`D`c`F`F`f`h`b`C`E`E`D`c`H`h",
"`g`f`f`f```F`i`h`f`f`f`f`f`j`X`h`b`e`e`e`e`e`f`f`b`e`b`b`e`e`e`f",
"`x`h`f`f`f`e`h`f`f`f`f`f`k```f`f`e`f`f`f`e`F`f`r`e`e`J`J`b`F`e`f",
"`R`h`h`k`f`f`f`f`f`f`f`k`v`a`e`h`L`h`f`f`f`e`k`Y`N`f`e`e`h`f`f`f",
"`R`k`x`Q`k`f`h`h`f`h`j```a`Z`k`k`g`h`r`f`f`e`f`r`g`f`f`h`i`r`j`f",
"`x`h`h`k`f`h`o`o`k`j`0`f`f`1`2`z`R`O`P`k`e`E`b`h`o`h`f`h`i`g`h`f",
"`g`h`h`h`h`h`k`k`g`j`H`f`h`b`A`3`4`k`O`h`f`D`F`h`g`h`h`h`k`h`h`h",
"`x`t`t`t`t`t`t`t`R`x`x`t`t`5`M`M`Z`t`t`t`t`s`s`t`6`t`t`t`t`t`t`t"
};
