/* XPM */
static char *front1_xpm[] = {
/* width height num_colors chars_per_pixel */
"    32    32      256            2",
/* colors */
"`` c #5a5a59",
"`. c #94665c",
"`# c #6c2a3c",
"`a c #242624",
"`b c #9c4234",
"`c c #6c4684",
"`d c #dc968c",
"`e c #54262c",
"`f c #bc6a5c",
"`g c #6c4694",
"`h c #341e2c",
"`i c #543e44",
"`j c #8c62bc",
"`k c #844e94",
"`l c #0c1614",
"`m c #4c2a54",
"`n c #6c3664",
"`o c #9c76dc",
"`p c #241e24",
"`q c #4c3254",
"`r c #8c5a94",
"`s c #3c263c",
"`t c #1c1a1c",
"`u c #842e24",
"`v c #946ec4",
"`w c #dcae8c",
"`x c #6c3a74",
"`y c #ac5644",
"`z c #5c325c",
"`A c #7c529c",
"`B c #bc8a94",
"`C c #8456a4",
"`D c #141e1c",
"`E c #5c2e64",
"`F c #843254",
"`G c #9c76e4",
"`H c #3c2e34",
"`I c #a47694",
"`J c #2c263c",
"`K c #944654",
"`L c #4c1e34",
"`M c #14162c",
"`N c #4c2e54",
"`O c #2c1e24",
"`P c #845abc",
"`Q c #5c326c",
"`R c #7c4a8c",
"`S c #5c3a6c",
"`T c #9462bc",
"`U c #843634",
"`V c #9472dc",
"`W c #f4aa8c",
"`X c #6c4284",
"`Y c #bc562c",
"`Z c #9c7eec",
"`0 c #945eb4",
"`1 c #ec9274",
"`2 c #5c2a24",
"`3 c #dc7a44",
"`4 c #141614",
"`5 c #743e64",
"`6 c #342e44",
"`7 c #8c5aac",
"`8 c #041214",
".` c #b4727c",
".. c #9c4a54",
".# c #c4725c",
".a c #8c52a4",
".b c #442a4c",
".c c #1c1e2c",
".d c #743e74",
".e c #8c569c",
".f c #a47aec",
".g c #8c5e84",
".h c #2c1e34",
".i c #64326c",
".j c #946acc",
".k c #8c5abc",
".l c #a46674",
".m c #74364c",
".n c #ac4a24",
".o c #4c263c",
".p c #74468c",
".q c #34223c",
".r c #8452a4",
".s c #4c2a64",
".t c #54365c",
".u c #3c264c",
".v c #1c1e1c",
".w c #9c6ed4",
".x c #d4aac4",
".y c #a45a64",
".z c #7c5aac",
".A c #e48e64",
".B c #9c7ae4",
".C c #3c2e44",
".D c #342a3c",
".E c #944e54",
".F c #4c2264",
".G c #542e64",
".H c #5c467c",
".I c #943624",
".J c #ec9e8c",
".K c #141a14",
".L c #141214",
".M c #744684",
".N c #cc6a44",
".O c #644654",
".P c #84529c",
".Q c #743a5c",
".R c #24222c",
".S c #843234",
".T c #946ed4",
".U c #e4b68c",
".V c #6c3e7c",
".W c #64325c",
".X c #7c52ac",
".Y c #943a54",
".Z c #ac8284",
".0 c #944a5c",
".1 c #2c222c",
".2 c #7c4e94",
".3 c #9c62bc",
".4 c #8c362c",
".5 c #9c72dc",
".6 c #f4ae94",
".7 c #bc5e44",
".8 c #7c3e64",
"#` c #8c5eb4",
"#. c #cca6c4",
"## c #ac82c4",
"#a c #64264c",
"#b c #7c2a54",
"#c c #eca694",
"#d c #543a64",
"#e c #846acc",
"#f c #a46e84",
"#g c #dc8e7c",
"#h c #c48684",
"#i c #743e54",
"#j c #2c2634",
"#k c #ac7684",
"#l c #f49e7c",
"#m c #b45a3c",
"#n c #54222c",
"#o c #643e74",
"#p c #542664",
"#q c #c45a2c",
"#r c #542e5c",
"#s c #a47ef4",
"#t c #0c1214",
"#u c #542644",
"#v c #442e4c",
"#w c #644684",
"#x c #3c1e2c",
"#y c #8c3254",
"#z c #9472ec",
"#A c #744284",
"#B c #8c56ac",
"#C c #9c6acc",
"#D c #542264",
"#E c #542a24",
"#F c #0c1a1c",
"#G c #6c3a5c",
"#H c #7c56a4",
"#I c #944a4c",
"#J c #141a24",
"#K c #9466c4",
"#L c #74426c",
"#M c #34324c",
"#N c #c47664",
"#O c #64366c",
"#P c #a46a7c",
"#Q c #744a8c",
"#R c #a45e6c",
"#S c #e4ba94",
"#T c #542a6c",
"#U c #9c4634",
"#V c #2c2a3c",
"#W c #5c366c",
"#X c #2c2234",
"#Y c #8c5ebc",
"#Z c #3c2a4c",
"#0 c #744a84",
"#1 c #cc6e44",
"#2 c #8c3a2c",
"#3 c #844e9c",
"#4 c #241e2c",
"#5 c #4c325c",
"#6 c #3c2644",
"#7 c #1c1a24",
"#8 c #946ecc",
"a` c #6c3a7c",
"a. c #5c3264",
"a# c #8456ac",
"aa c #141e24",
"ab c #5c2e6c",
"ac c #9c76ec",
"ad c #2c1e2c",
"ae c #7c4a94",
"af c #f4aa94",
"ag c #14161c",
"ah c #8c5ab4",
"ai c #743e7c",
"aj c #8c56a4",
"ak c #ac4a2c",
"al c #342244",
"am c #543664",
"an c #1c1e24",
"ao c #9c7aec",
"ap c #3c2e4c",
"aq c #342a44",
"ar c #542e6c",
"as c #141a1c",
"at c #84323c",
"au c #0c121c",
"av c #643674",
"aw c #744a94",
"ax c #000000",
"ay c #000000",
"az c #000000",
"aA c #000000",
"aB c #000000",
"aC c #000000",
"aD c #000000",
"aE c #000000",
"aF c #000000",
"aG c #000000",
"aH c #000000",
"aI c #000000",
"aJ c #000000",
"aK c #000000",
"aL c #000000",
"aM c #000000",
"aN c #000000",
"aO c #000000",
"aP c #000000",
"aQ c #000000",
"aR c #000000",
"aS c #000000",
"aT c #000000",
"aU c #000000",
"aV c #000000",
"aW c #000000",
"aX c #000000",
"aY c #000000",
"aZ c #000000",
"a0 c #000000",
"a1 c #000000",
"a2 c #000000",
"a3 c #000000",
"a4 c #000000",
"a5 c #000000",
"a6 c #000000",
"a7 c #000000",
"a8 c #000000",
/* pixels */
"````````````````````````````````````````````````````````````````",
"````````````````````````````````````````````````````````````````",
"````````````````````````````````````````````````````````````````",
"````````````````````````````````````````````````````````````````",
"``````````````````````````ag`tag`4asas``````````````````````````",
"`````````````````````````l#X#v#5#d`N.qas`8``````````````````````",
"`````````````````````t#7#4`N#A`0`T.2`Q#X#4`D````````````````````",
"````````````````````#J`p`N#Aah.Bao#K`Ra.#Xas````````````````````",
"`````````````````````tan.V`j`G#z#z#z#8ae.Das````````````````````",
"````````````````````as`t.M.k`v#..x##`Pajal`l````````````````````",
"``````````````````.L.R#X#o.e`I`w.U`B`rae#Z`p`t``````````````````",
"``````````````````as#X.i.F.Z.Uar.F.Z.Uar.i#Zas``````````````````",
"``````````````````as#X#p#h#k#Lat.S#i.g`d.Val`t``````````````````",
"``````````````````au.D#f#N.0`##U.n.S.m.#.`.O#t``````````````````",
"````````````````.K`M`i#l`b#2#m.N#1.7`b`u`1`.`Mas.R``````````````",
"````````````````as.u.Q#q.I`f#c.J.J#c#g.4`Y`K`manas``````````````",
"````````````#J#7.b`E#O#G.i#I`3af.6.A#m.W`n.W`Q#r#X`D````````````",
"````````````#7an#o`x`Eab.G.8.y.l.l#R.0.G`Qa..i#A.qas````````````",
"`````````````t#7`A.2.i`Q#Oaw.Xar#T`g.Xava.`Q`X#``6`4````````````",
"`````````````4`t#e#C`Ra.`R#K`G#3`k#K`o.Pavai#`.Bap#t````````````",
"``````````ag.D`c`V#C#Q#4.G#Q`T`V`G.j.P#O#X#d.3ac#H`q`4``````````",
"```````````4`6#B.f.zap`t#Wai.p.j#8`Aa`.V#4#X#wao.3`S`4``````````",
"``````````ag.D.M.5.H#tad`Aaw#O`R`Ra``x#`#v`4#V.5`A`qag``````````",
"````````````ag#7#Q#d`p`Q.T.j`R`E`E.V`7ao`X`s#X.aaq`4````````````",
"````````````.R`t.D.R#X`R.Tao.jae`R`j`Gao.a#v#J.D#X`l````````````",
"````````````````asad#5#K`G.5`j#A#A`C.T.B.w#w`h#7ag``````````````",
"````````````````as.baeao`G#`.V`m`m#O.P`V#s`P.Gan#7``````````````",
"`````````````````4am#`aoah#A`man`t#6a`.P`V.w`can`t``````````````",
"````````````````#J.o#y..`F#u#4#7as.c`s#b`K.Y#a`p#J``````````````",
"````````````````aa`h#n`e#n`h#F````#F`O`L`e`e#xan#4``````````````",
"``````````````````#J#J#Janaa`````````laaas#7aa``````````````````",
"````````````````````````````````````````````````````````````````"
};
