/* XPM */
static char *front2_xpm[] = {
/* width height num_colors chars_per_pixel */
"    32    32      256            2",
/* colors */
"`` c #040204",
"`. c #9c727c",
"`# c #74262c",
"`a c #744a74",
"`b c #4c1e2c",
"`c c #a44a2c",
"`d c #d4aa9c",
"`e c #6c3264",
"`f c #3c2e44",
"`g c #bc8a9c",
"`h c #7c4a94",
"`i c #141a1c",
"`j c #845eb4",
"`k c #542e5c",
"`l c #2c2234",
"`m c #8c322c",
"`n c #d46e3c",
"`o c #6c3e7c",
"`p c #946ed4",
"`q c #a47edc",
"`r c #543a64",
"`s c #541a2c",
"`t c #844e9c",
"`u c #6c3e5c",
"`v c #242624",
"`w c #8c5ebc",
"`x c #cc8a84",
"`y c #945a7c",
"`z c #2c2a34",
"`A c #74468c",
"`B c #4c3a3c",
"`C c #241e24",
"`D c #9c76dc",
"`E c #e48e6c",
"`F c #843224",
"`G c #3c2654",
"`H c #a45a54",
"`I c #4c2e44",
"`J c #64326c",
"`K c #943e2c",
"`L c #8456a4",
"`M c #8466c4",
"`N c #ac7e84",
"`O c #9c4a44",
"`P c #1c1a1c",
"`Q c #542e6c",
"`R c #7c4674",
"`S c #2c263c",
"`T c #6c4674",
"`U c #e4967c",
"`V c #bc5a34",
"`W c #0c0e1c",
"`X c #6c2644",
"`Y c #3c2644",
"`Z c #f4ca9c",
"`0 c #7c366c",
"`1 c #9c76ec",
"`2 c #4c2e54",
"`3 c #9466c4",
"`4 c #c47254",
"`5 c #6c3a64",
"`6 c #ac86d4",
"`7 c #64366c",
"`8 c #8c52a4",
".` c #9c422c",
".. c #944a7c",
".# c #1c1e2c",
".a c #ec9a7c",
".b c #f4a694",
".c c #745294",
".d c #5c2e64",
".e c #342634",
".f c #9c3a24",
".g c #74427c",
".h c #9c72d4",
".i c #542644",
".j c #84529c",
".k c #342a3c",
".l c #8c56a4",
".m c #1c1e1c",
".n c #5c2e6c",
".o c #bc6244",
".p c #141614",
".q c #742e44",
".r c #44264c",
".s c #4c3254",
".t c #946ad4",
".u c #643a6c",
".v c #a47a8c",
".w c #744a84",
".x c #442e4c",
".y c #141e24",
".z c #94669c",
".A c #341e24",
".B c #8c3624",
".C c #9c7ef4",
".D c #7c3a5c",
".E c #8c62bc",
".F c #dc8e7c",
".G c #8c6664",
".H c #7c468c",
".I c #9c7ae4",
".J c #7c2a54",
".K c #4c226c",
".L c #b46254",
".M c #8c4244",
".N c #ac868c",
".O c #8c5664",
".P c #34263c",
".Q c #744684",
".R c #e49a84",
".S c #3c2a4c",
".T c #9c7aec",
".U c #946acc",
".V c #6c3a74",
".W c #342e44",
".X c #040a0c",
".Y c #a46e7c",
".Z c #742e24",
".0 c #4c1e34",
".1 c #a44e44",
".2 c #dcb29c",
".3 c #6c366c",
".4 c #3c324c",
".5 c #7c4e94",
".6 c #141a24",
".7 c #8c5eb4",
".8 c #542e64",
"#` c #cc8274",
"#. c #9c568c",
"## c #cc6634",
"#a c #641e34",
"#b c #a4626c",
"#c c #4c2a54",
"#d c #fcd29c",
"#e c #945254",
"#f c #d48e8c",
"#g c #8c6acc",
"#h c #5c224c",
"#i c #843e54",
"#j c #e4927c",
"#k c #c45e34",
"#l c #a482f4",
"#m c #b48a8c",
"#n c #a44224",
"#o c #7c529c",
"#p c #6c4684",
"#q c #7c469c",
"#r c #842a54",
"#s c #6c4284",
"#t c #9472dc",
"#u c #945e74",
"#v c #4c324c",
"#w c #0c1214",
"#x c #6c2a4c",
"#y c #74324c",
"#z c #8c464c",
"#A c #ac8ad4",
"#B c #f4aa94",
"#C c #5c3264",
"#D c #5c326c",
"#E c #844ea4",
"#F c #24262c",
"#G c #241e2c",
"#H c #9c76e4",
"#I c #8456ac",
"#J c #1c1a24",
"#K c #542e74",
"#L c #e49684",
"#M c #3c264c",
"#N c #9c76f4",
"#O c #4c2e5c",
"#P c #9466cc",
"#Q c #c4725c",
"#R c #643674",
"#S c #ec9a84",
"#T c #744284",
"#U c #9c72dc",
"#V c #8452a4",
"#W c #342a44",
"#X c #8c56ac",
"#Y c #1c1e24",
"#Z c #14161c",
"#0 c #4c325c",
"#1 c #643a74",
"#2 c #744a8c",
"#3 c #341e2c",
"#4 c #8c362c",
"#5 c #8c62c4",
"#6 c #342644",
"#7 c #6c3a7c",
"#8 c #000000",
"a` c #000000",
"a. c #000000",
"a# c #000000",
"aa c #000000",
"ab c #000000",
"ac c #000000",
"ad c #000000",
"ae c #000000",
"af c #000000",
"ag c #000000",
"ah c #000000",
"ai c #000000",
"aj c #000000",
"ak c #000000",
"al c #000000",
"am c #000000",
"an c #000000",
"ao c #000000",
"ap c #000000",
"aq c #000000",
"ar c #000000",
"as c #000000",
"at c #000000",
"au c #000000",
"av c #000000",
"aw c #000000",
"ax c #000000",
"ay c #000000",
"az c #000000",
"aA c #000000",
"aB c #000000",
"aC c #000000",
"aD c #000000",
"aE c #000000",
"aF c #000000",
"aG c #000000",
"aH c #000000",
"aI c #000000",
"aJ c #000000",
"aK c #000000",
"aL c #000000",
"aM c #000000",
"aN c #000000",
"aO c #000000",
"aP c #000000",
"aQ c #000000",
"aR c #000000",
"aS c #000000",
"aT c #000000",
"aU c #000000",
"aV c #000000",
"aW c #000000",
"aX c #000000",
"aY c #000000",
"aZ c #000000",
"a0 c #000000",
"a1 c #000000",
"a2 c #000000",
"a3 c #000000",
"a4 c #000000",
"a5 c #000000",
"a6 c #000000",
"a7 c #000000",
"a8 c #000000",
/* pixels */
"````````````````````````````````````````````````````````````````",
"````````````````````````````````````````````````````````````````",
"````````````````````````````````````````````````````````````````",
"````````````````````````````````````````````````````````````````",
"````````````````````````````````````````````````````````````````",
"```````````````````````````i`i#Z.p`i`i``````````````````````````",
"`````````````````````````i#G.P.k#W.P`l`i`v``````````````````````",
"`````````````````````````i`Y.V.j.l#T#c#Y`i``````````````````````",
"````````````````````.6#J.r#1.j#U#t.7.g#c`l.y````````````````````",
"````````````````````#J#Y.u#I`p`1#N#t`w#T.P`i````````````````````",
"`````````````````````P#Y.Q`3#H`6#A`q.t`L#W.p````````````````````",
"````````````````````#Z#Y#p#E.z`Z#d`g#q.j.k#Z````````````````````",
"```````````````````i`l`k.K.v.2`a`T#m`d`Q.d`Y`i``````````````````",
"```````````````````i`l.n#u`N.Y#x`X.O`N.Y.V#M`P``````````````````",
"``````````````````#Z.e`R.F#b#h.f.`.q`5.a`y.x`i``````````````````",
"```````````````````W`B.b`O`F`K`V#k`c`m.B#S.G.X``````````````````",
"`````````````````i#6`5`n`K.L#L#j.F`U#`.B###e`G.p.X``````````````",
"`````````````````i.S.3.M#y`H`E#B#B`U`4#y.M.D#D`r`S.p````````````",
"````````````````#Z.x.3`Q`Q#i`V`x#f`4`O.n`Q#D`o.l`f#Z````````````",
"````````````````.p`r#V#C.d#s.5#C`k#s.5.d.d#s`8.j.k#Z````````````",
"````````````````#Z`r`8`J.Q`3`p`A#T`w`p.5#C#o`p.j#W.p````````````",
"`````````````````i#0#s`Y#1`L.U`3`3.U.E#T.V`j#H.l#W#Z````````````",
"`````````````````i`Y#c`P#O.g.j#t.T.7.g.d#o.h`p.Q.k#Z````````````",
"``````````````````#J#Y`P#2#T#D.j#V#T.8.d#g#l`M#J.p``````````````",
"``````````````````#Z.e#p.U.7#T`7#R#C`7`h#U#U.5.#`P``````````````",
"``````````````````#w.W#P.I#t.7`o#C#R.Q.j`3.c.x#Y.m``````````````",
"``````````````````.p.4.C#H.T`D#V`7#T.l.j`t#0#w``````````````````",
"``````````````````#w`f.T.T.T#U.j`7#s`L#V.V`Y`i``````````````````",
"``````````````````.p#W.7.T`p#V.V#6.i#r.J.x`z#J``````````````````",
"```````````````````i.P`0#...`e`Y.#.A`b`b`l#F#J``````````````````",
"``````````````````.y#3#a.Z`#`b`i```i.y.y#Y#Y````````````````````",
"`````````````````````P#Y#Y#Y#J``````````````````````````````````"
};
