/* XPM */
static char *front3_xpm[] = {
/* width height num_colors chars_per_pixel */
"    32    32      256            2",
/* colors */
"`` c #040204",
"`. c #9c727c",
"`# c #6c222c",
"`a c #744a74",
"`b c #342a3c",
"`c c #d4aa9c",
"`d c #a44a2c",
"`e c #946ed4",
"`f c #3c1a2c",
"`g c #6c3664",
"`h c #543e6c",
"`i c #7c4a94",
"`j c #542e5c",
"`k c #0c1614",
"`l c #d46e3c",
"`m c #8c5eb4",
"`n c #8c322c",
"`o c #241e24",
"`p c #a47edc",
"`q c #8c4274",
"`r c #5c3664",
"`s c #6c4284",
"`t c #4c1e34",
"`u c #945e74",
"`v c #4c3a3c",
"`w c #cc8a84",
"`x c #7c321c",
"`y c #442a4c",
"`z c #8456a4",
"`A c #1c1a1c",
"`B c #342244",
"`C c #8c5ebc",
"`D c #e48e6c",
"`E c #ac7e84",
"`F c #a45a54",
"`G c #9c76dc",
"`H c #542e6c",
"`I c #943e2c",
"`J c #9c4a44",
"`K c #8c66c4",
"`L c #6c4674",
"`M c #5c4a84",
"`N c #7c529c",
"`O c #141e24",
"`P c #242624",
"`Q c #9c7eec",
"`R c #7c468c",
"`S c #443254",
"`T c #e4967c",
"`U c #bc5a34",
"`V c #f4ca9c",
"`W c #141614",
"`X c #64366c",
"`Y c #74324c",
"`Z c #9c76ec",
"`0 c #9c6acc",
"`1 c #c47254",
"`2 c #842a54",
"`3 c #744a84",
"`4 c #34223c",
"`5 c #5c2e5c",
"`6 c #744284",
"`7 c #4c2a4c",
"`8 c #44264c",
".` c #9c422c",
".. c #ec9a7c",
".# c #0c120c",
".a c #6c2a4c",
".b c #3c3244",
".c c #f4a694",
".d c #6c3e7c",
".e c #64427c",
".f c #844e9c",
".g c #9c3a24",
".h c #2c2234",
".i c #945a7c",
".j c #8c56a4",
".k c #1c1e1c",
".l c #3c2644",
".m c #ac868c",
".n c #5c2e6c",
".o c #9466c4",
".p c #a47ef4",
".q c #bc6244",
".r c #141624",
".s c #643a6c",
".t c #743e5c",
".u c #7c4a8c",
".v c #4c2e5c",
".w c #a47a8c",
".x c #3c2a44",
".y c #9c72dc",
".z c #6c3a74",
".A c #5c3e6c",
".B c #8c3624",
".C c #24222c",
".D c #ac86d4",
".E c #4c226c",
".F c #dc8e7c",
".G c #b46254",
".H c #9c7ae4",
".I c #8c4244",
".J c #8c5664",
".K c #7c4674",
".L c #644e8c",
".M c #84529c",
".N c #2c2634",
".O c #e49a84",
".P c #141a1c",
".Q c #9c7aec",
".R c #744e8c",
".S c #342634",
".T c #5c3264",
".U c #744684",
".V c #4c2e54",
".W c #141214",
".X c #3c2654",
".Y c #bc8a9c",
".Z c #946ad4",
".0 c #843e54",
".1 c #a46e7c",
".2 c #6c2644",
".3 c #342a44",
".4 c #dcb29c",
".5 c #a44e44",
".6 c #9472dc",
".7 c #441e2c",
".8 c #6c3a64",
"#` c #7c4e94",
"#. c #cc8274",
"## c #5c224c",
"#a c #cc6634",
"#b c #94669c",
"#c c #a4626c",
"#d c #8c6664",
"#e c #fcd29c",
"#f c #945254",
"#g c #9c5a8c",
"#h c #d48e8c",
"#i c #74427c",
"#j c #742e44",
"#k c #e4927c",
"#l c #c45e34",
"#m c #0c0e1c",
"#n c #b48a8c",
"#o c #843224",
"#p c #4c324c",
"#q c #a44224",
"#r c #7c469c",
"#s c #7c3e5c",
"#t c #0c1a1c",
"#u c #5c4e8c",
"#v c #8c5aac",
"#w c #946acc",
"#x c #a482fc",
"#y c #5c4274",
"#z c #8c464c",
"#A c #6c4684",
"#B c #8c62bc",
"#C c #f4aa94",
"#D c #5c326c",
"#E c #ac8ad4",
"#F c #542e64",
"#G c #241e2c",
"#H c #5c366c",
"#I c #8456ac",
"#J c #1c1a24",
"#K c #9c76e4",
"#L c #542e74",
"#M c #24262c",
"#N c #9c7ef4",
"#O c #e49684",
"#P c #14161c",
"#Q c #643674",
"#R c #9c76f4",
"#S c #9c6ad4",
"#T c #c4725c",
"#U c #744a8c",
"#V c #5c2e64",
"#W c #4c2a54",
"#X c #ec9a84",
"#Y c #844ea4",
"#Z c #1c1e24",
"#0 c #3c264c",
"#1 c #643a74",
"#2 c #8c362c",
"#3 c #8452a4",
"#4 c #34263c",
"#5 c #74468c",
"#6 c #000000",
"#7 c #000000",
"#8 c #000000",
"a` c #000000",
"a. c #000000",
"a# c #000000",
"aa c #000000",
"ab c #000000",
"ac c #000000",
"ad c #000000",
"ae c #000000",
"af c #000000",
"ag c #000000",
"ah c #000000",
"ai c #000000",
"aj c #000000",
"ak c #000000",
"al c #000000",
"am c #000000",
"an c #000000",
"ao c #000000",
"ap c #000000",
"aq c #000000",
"ar c #000000",
"as c #000000",
"at c #000000",
"au c #000000",
"av c #000000",
"aw c #000000",
"ax c #000000",
"ay c #000000",
"az c #000000",
"aA c #000000",
"aB c #000000",
"aC c #000000",
"aD c #000000",
"aE c #000000",
"aF c #000000",
"aG c #000000",
"aH c #000000",
"aI c #000000",
"aJ c #000000",
"aK c #000000",
"aL c #000000",
"aM c #000000",
"aN c #000000",
"aO c #000000",
"aP c #000000",
"aQ c #000000",
"aR c #000000",
"aS c #000000",
"aT c #000000",
"aU c #000000",
"aV c #000000",
"aW c #000000",
"aX c #000000",
"aY c #000000",
"aZ c #000000",
"a0 c #000000",
"a1 c #000000",
"a2 c #000000",
"a3 c #000000",
"a4 c #000000",
"a5 c #000000",
"a6 c #000000",
"a7 c #000000",
"a8 c #000000",
/* pixels */
"````````````````````````````````````````````````````````````````",
"````````````````````````````````````````````````````````````````",
"````````````````````````````````````````````````````````````````",
"````````````````````````````````````````````````````````````````",
"````````````````````````````````````````````````````````````````",
"``````````````````````````.P.P#P`W.P.P``````````````````````````",
"````````````````````````#t.h.S.3`b#4.h.P.C``````````````````````",
"````````````````````````#P.l.z.M#3`6#W#Z.P``````````````````````",
"````````````````````.P#Z`8#1.M.y`G`C#i`j.h`O````````````````````",
"````````````````````#J#Z.s#I.Z`Z#R.6`m`6#4.P````````````````````",
"`````````````````````A#J.U.o#K.D#E`p.Z#3`b`W````````````````````",
"````````````````````#P#Z#A#Y#b`V#e.Y#r.M.3`W````````````````````",
"``````````````````.P.h`j.E.w.4`a`L#n`c`H#F.l.P``````````````````",
"``````````````````.P.h.n`u`E.1.a.2.J`E.1.z#0`A``````````````````",
"``````````````````#P.S.K.F#c##.`.`#j.8...i.V.P``````````````````",
"``````````````````#m`v.c`J#o`I`U#l`d`n`n..#d#m``````````````````",
"````````````````.#.h.8`l`I.G#O#k`D`T#..B#a#f#0#J.P``````````````",
"````````````.W#Z`S#H`X.I`Y`F`D.c#C`T`1`Y.I#s#W#G#J``````````````",
"````````````#P#G#``i`X#F`H.0`U`w#h#T`J`H`H#Q.T#Z.P``````````````",
"`````````````A#Z#A.j`i#V#V`s`N#V`j`s#`.T#V`6#U#Z#J``````````````",
"````````````.P#Z#A.o`K#V.U.o`e#5`6`m`e.f`X`R.R#Z`A``````````````",
"`````````````A#Z.U#S.6.d.d#3#w.o.o#w#B`6`y#H.e`o.r``````````````",
"````````````.P#J.s#B#K#v`X#Q.M`G.Q`m#i`X#Z`4#W#J#J``````````````",
"````````````````.#`M#x.Q.d`j#Q.M#3.d`X#3#4`A#Z``````````````````",
"`````````````````W.A`0.Q#I.z#V#1#H.z#3.6#``S#P``````````````````",
"````````````````#P.x.e.o#v.u.d#V.z`N.Z.Q.y#y.W``````````````````",
"``````````````````.#.N.u#``z#`.T`i#w.p#K.p.L.W``````````````````",
"``````````````````.P.h#D`i.j`i#D.u.o.Q#K.p#u.W``````````````````",
"``````````````````#J#M.b.a`2.a.h.T`i`K#N`0`h`W``````````````````",
"``````````````````#J#G#M.7`t.7.P`4`5`q#g`q`7.P``````````````````",
"````````````````````.r#Z#Z`O.P``#t`f`#`x`#.7.P``````````````````",
"``````````````````````````````````#J#Z#Z#Z#J````````````````````"
};
