/* XPM */
static char *32potion_xpm[] = {
/* width height num_colors chars_per_pixel */
"    32    32       16            1",
/* colors */
"` c None",
". c #eea160",
"# c #bf7958",
"a c #7a444a",
"b c #a05b53",
"c c #dff6f5",
"d c #ffffff",
"e c #cd6093",
"f c #8e478c",
"g c #564064",
"h c #39314b",
"i c #000000",
"j c #000000",
"k c #000000",
"l c #000000",
"m c #000000",
/* pixels */
"````````````````````````````````",
"````````````````````````````````",
"````````````````````````````````",
"````````````````````````````````",
"```````````````....`````````````",
"``````````````.....#````````````",
"``````````````#..##a````````````",
"``````````````##bbaa````````````",
"``````````````b#baaa````````````",
"``````````````bbbaaa````````````",
"````````````ccbbaaaacc``````````",
"`````````cccddcbbaacddccc```````",
"``````cccddddcbccccacddddccc````",
"````ccdddddddcdbbaadcdddddddcc``",
"````cdcccdddddcdaadcdddddcccdc``",
"````cddddccccddddddddccccddddc``",
"````cdeceeeeecccccccceefffffdc``",
"````cdgccceeeeeeeeeeeefffffhdc``",
"````cdgccceeeeeeeeeeeefffhchdc``",
"````cdggccgggeeeeeeeegghhcchdc``",
"````cdgggggggggggggggghhhcchdc``",
"````cdgcgggggggggggghhhhhcchdc``",
"````cdgcccggggggghhhhhhhhchhdc``",
"````cdgggcgggghhhhhhhhhhhhhhdc``",
"````cdgcgghhhhhhhhhhhhhhhhchdc``",
"````cddcccchhhhhhhhhhhhhccdddc``",
"````ccddddccccchhhhhhdccddddcc``",
"````cccccdddddccdcdcdddddccccc``",
"``````cccccccddddddddccccccc````",
"`````````cccccccccccccccc```````",
"`````````````cccccccc```````````",
"````````````````````````````````"
};
