/* XPM */
static char *back1_xpm[] = {
/* width height num_colors chars_per_pixel */
"    32    32      256            2",
/* colors */
"`` c #040204",
"`. c #5c467c",
"`# c #54222c",
"`a c #8c62bc",
"`b c #141e1c",
"`c c #341e2c",
"`d c #944654",
"`e c #7c2a54",
"`f c #542e5c",
"`g c #9472dc",
"`h c #342a3c",
"`i c #6c3a74",
"`j c #241e24",
"`k c #54365c",
"`l c #7c529c",
"`m c #844e94",
"`n c #442a4c",
"`o c #845aac",
"`p c #041214",
"`q c #744284",
"`r c #9462bc",
"`s c #242624",
"`t c #141214",
"`u c #9c7ae4",
"`v c #64366c",
"`w c #946acc",
"`x c #64326c",
"`y c #2c1e24",
"`z c #8456a4",
"`A c #744a8c",
"`B c #141a14",
"`C c #4c1e34",
"`D c #5c325c",
"`E c #34324c",
"`F c #4c3254",
"`G c #542644",
"`H c #3c2a4c",
"`I c #945eb4",
"`J c #a47aec",
"`K c #1c1e1c",
"`L c #3c263c",
"`M c #5c366c",
"`N c #8c52a4",
"`O c #4c2a54",
"`P c #8c5aac",
"`Q c #9c6acc",
"`R c #2c1e34",
"`S c #7c4a8c",
"`T c #1c1a1c",
"`U c #6c427c",
"`V c #542a24",
"`W c #943a54",
"`X c #5c2a5c",
"`Y c #9c72dc",
"`Z c #743e7c",
"`0 c #7c5aac",
"`1 c #8452a4",
"`2 c #0c1a1c",
"`3 c #9c62bc",
"`4 c #2c2634",
"`5 c #9c7ef4",
"`6 c #643e74",
"`7 c #8c5ebc",
"`8 c #846acc",
".` c #3c1e2c",
".. c #8c3254",
".# c #342e44",
".a c #6c3e7c",
".b c #24222c",
".c c #543a64",
".d c #7c56ac",
".e c #84529c",
".f c #442e4c",
".g c #0c1214",
".h c #744684",
".i c #9466bc",
".j c #141614",
".k c #9c7eec",
".l c #643a74",
".m c #946ecc",
".n c #2c222c",
".o c #8c56a4",
".p c #141a24",
".q c #5c326c",
".r c #3c2e44",
".s c #1c1e2c",
".t c #8c5eb4",
".u c #7c4e94",
".v c #5c2e5c",
".w c #9c76dc",
".x c #2c2a3c",
".y c #644684",
".z c #54262c",
".A c #8c66c4",
".B c #141e24",
".C c #34223c",
".D c #9c4a54",
".E c #843254",
".F c #342a44",
".G c #6c3a7c",
".H c #241e2c",
".I c #543664",
".J c #7c56a4",
".K c #844e9c",
".L c #442a54",
".M c #9c7aec",
".N c #643674",
".O c #2c1e2c",
".P c #744a94",
".Q c #141a1c",
".R c #4c263c",
".S c #5c3264",
".T c #4c325c",
".U c #64264c",
".V c #a47ef4",
".W c #1c1e24",
".X c #3c2644",
".Y c #5c3a6c",
".Z c #4c2e54",
".0 c #8c5ab4",
".1 c #9c6ed4",
".2 c #2c2234",
".3 c #7c4a94",
".4 c #1c1a24",
".5 c #6c4684",
".6 c #5c2a24",
".7 c #2c263c",
".8 c #0c1614",
"#` c #74468c",
"#. c #9466c4",
"## c #14161c",
"#a c #946ed4",
"#b c #8c56ac",
"#c c #3c2e4c",
"#d c #5c2e64",
"#e c #9c76e4",
"#f c #000000",
"#g c #000000",
"#h c #000000",
"#i c #000000",
"#j c #000000",
"#k c #000000",
"#l c #000000",
"#m c #000000",
"#n c #000000",
"#o c #000000",
"#p c #000000",
"#q c #000000",
"#r c #000000",
"#s c #000000",
"#t c #000000",
"#u c #000000",
"#v c #000000",
"#w c #000000",
"#x c #000000",
"#y c #000000",
"#z c #000000",
"#A c #000000",
"#B c #000000",
"#C c #000000",
"#D c #000000",
"#E c #000000",
"#F c #000000",
"#G c #000000",
"#H c #000000",
"#I c #000000",
"#J c #000000",
"#K c #000000",
"#L c #000000",
"#M c #000000",
"#N c #000000",
"#O c #000000",
"#P c #000000",
"#Q c #000000",
"#R c #000000",
"#S c #000000",
"#T c #000000",
"#U c #000000",
"#V c #000000",
"#W c #000000",
"#X c #000000",
"#Y c #000000",
"#Z c #000000",
"#0 c #000000",
"#1 c #000000",
"#2 c #000000",
"#3 c #000000",
"#4 c #000000",
"#5 c #000000",
"#6 c #000000",
"#7 c #000000",
"#8 c #000000",
"a` c #000000",
"a. c #000000",
"a# c #000000",
"aa c #000000",
"ab c #000000",
"ac c #000000",
"ad c #000000",
"ae c #000000",
"af c #000000",
"ag c #000000",
"ah c #000000",
"ai c #000000",
"aj c #000000",
"ak c #000000",
"al c #000000",
"am c #000000",
"an c #000000",
"ao c #000000",
"ap c #000000",
"aq c #000000",
"ar c #000000",
"as c #000000",
"at c #000000",
"au c #000000",
"av c #000000",
"aw c #000000",
"ax c #000000",
"ay c #000000",
"az c #000000",
"aA c #000000",
"aB c #000000",
"aC c #000000",
"aD c #000000",
"aE c #000000",
"aF c #000000",
"aG c #000000",
"aH c #000000",
"aI c #000000",
"aJ c #000000",
"aK c #000000",
"aL c #000000",
"aM c #000000",
"aN c #000000",
"aO c #000000",
"aP c #000000",
"aQ c #000000",
"aR c #000000",
"aS c #000000",
"aT c #000000",
"aU c #000000",
"aV c #000000",
"aW c #000000",
"aX c #000000",
"aY c #000000",
"aZ c #000000",
"a0 c #000000",
"a1 c #000000",
"a2 c #000000",
"a3 c #000000",
"a4 c #000000",
"a5 c #000000",
"a6 c #000000",
"a7 c #000000",
"a8 c #000000",
/* pixels */
"````````````````````````````````````````````````````````````````",
"````````````````````````````````````````````````````````````````",
"````````````````````````````````````````````````````````````````",
"````````````````````````````````````````````````````````````````",
"``````````````````````````##`T##.j.Q.Q``````````````````````````",
"````````````````````````.8.2.f.T.c.Z.C.Q`p``````````````````````",
"`````````````````````T.4.H.Z`q`I`r.u.q.2.H`b````````````````````",
"````````````````````.p`j.Z`q.0`u.M#.`S.S.2.Q````````````````````",
"`````````````````````T.W.a.t#e#e.M#e`w.3`h.Q````````````````````",
"````````````````````.Q`T.5`w`5#e#e.M`g`1`h.j````````````````````",
"```````````````````t.b.2`q`r`Y`u`u#e`w.e`H`j.Q``````````````````",
"``````````````````.Q.2.q.3.e`z.M.M.A`m.e.G.X.4``````````````````",
"``````````````````##.2`x.u`z.e`o`P`1.e`z`i.X.Q``````````````````",
"``````````````````.Q.2.q.a.3.e.e.K.e`m`q.N`H.Q``````````````````",
"`````````````````2.H`L.q.v.a`m.3.3.u#`#d`x`n.H`T.b``````````````",
"````````````````.Q`n`x.S.q.S.S.S.S.q.S.S.S`x`f.W.Q``````````````",
"````````````.p.4`n#d.q.S`x#d#d.q`x#d#d.q`x.q.S`f.2`b````````````",
"````````````.4.W.l`i#d.q.S.l.a#d#d.l.a.S.S#d`x`q`h.Q````````````",
"`````````````T.4`l.u`v.S`x.u`z.N`v`S`o`v`x.q`U.0.F.j````````````",
"````````````.j`T`8`w`S.q`S#.#e.e.u#.#e.e`v.a.t`J`E`t````````````",
"``````````##`h.5`g.1`S.H`f`A`r#e`u`w.e`v`R.Y`r#e.J`F.j``````````",
"``````````.j.##b`J`0`H`T`M`Z.5.d`o.P.G.a.H`4.y.M`3.Y.j``````````",
"``````````##`h.h.1`..g.n`l.3.S`X`f#d.a.t.f.j.x`Y`z`F##``````````",
"````````````##.W.3.c`j.S#a`w`S#d#d.a`P.M`U.X.2`N`h##````````````",
"````````````.b`T.x.b.2`S#a.M`w.u.3`a#e.M`N.f.4`h.b.8````````````",
"````````````````.Q.O.T#.#e`g`a`q`q`z#a.M.1.y`R.4##``````````````",
"````````````````##`n.3.M#e.t`Z`O`O`v.e`Y`5`7`D.W.4``````````````",
"````````````````.j.I.t.M.0`q`O.W.4.X.G.e`Y`w.5.4`T``````````````",
"````````````````.p.R...D.E`G.H.4.Q.H`L`e`d`W.U.H.p``````````````",
"````````````````.B`c`#.z`#`c`2`````2`j`C.z.z.`.W.W``````````````",
"``````````````````.p.B.p.W.B````````.8.B.Q.p.W``````````````````",
"````````````````````````````````````````````````````````````````"
};
