/* XPM */
static char *back2_xpm[] = {
/* width height num_colors chars_per_pixel */
"    32    32      256            2",
/* colors */
"`` c #040204",
"`. c #6c427c",
"`# c #4c1e2c",
"`a c #8462bc",
"`b c #141e24",
"`c c #74262c",
"`d c #944a7c",
"`e c #341e24",
"`f c #4c2e54",
"`g c #6c569c",
"`h c #9472dc",
"`i c #5c2e64",
"`j c #342a3c",
"`k c #7c468c",
"`l c #241e2c",
"`m c #6c3264",
"`n c #0c1204",
"`o c #9466c4",
"`p c #9c7ae4",
"`q c #64366c",
"`r c #442a4c",
"`s c #6c3a74",
"`t c #1c1a1c",
"`u c #9c568c",
"`v c #4c3654",
"`w c #7c529c",
"`x c #74427c",
"`y c #4c2a54",
"`z c #34263c",
"`A c #242624",
"`B c #14161c",
"`C c #845aac",
"`D c #3c324c",
"`E c #7c4e94",
"`F c #946ecc",
"`G c #7c366c",
"`H c #8c56a4",
"`I c #84529c",
"`J c #641e34",
"`K c #1c1e1c",
"`L c #542e5c",
"`M c #9c72dc",
"`N c #64326c",
"`O c #3c2a4c",
"`P c #a47ef4",
"`Q c #643a6c",
"`R c #743e7c",
"`S c #74468c",
"`T c #442644",
"`U c #8c5eb4",
"`V c #8456ac",
"`W c #541a2c",
"`X c #8c62bc",
"`Y c #4c325c",
"`Z c #5c3264",
"`0 c #342e3c",
"`1 c #7c4a8c",
"`2 c #2c2234",
"`3 c #7c2a54",
"`4 c #141614",
"`5 c #9c6acc",
"`6 c #9c7ef4",
"`7 c #442e4c",
"`8 c #6c3e7c",
".` c #543a64",
".. c #744684",
".# c #2c262c",
".a c #141a1c",
".b c #8c5aac",
".c c #8456a4",
".d c #1c1e2c",
".e c #9c76dc",
".f c #6c4684",
".g c #4c1e34",
".h c #742e24",
".i c #8c52a4",
".j c #341e2c",
".k c #4c2e5c",
".l c #342a44",
".m c #24222c",
".n c #0c1614",
".o c #946acc",
".p c #9c7aec",
".q c #643674",
".r c #442a54",
".s c #6c3a7c",
".t c #1c1a24",
".u c #4c3a64",
".v c #744284",
".w c #542644",
".x c #3c2644",
".y c #844e94",
".z c #946ed4",
".A c #8c56ac",
".B c #8452a4",
".C c #1c1e24",
".D c #643a74",
".E c #44264c",
".F c #8c66c4",
".G c #5c326c",
".H c #7c4a94",
".I c #842a54",
".J c #2c2634",
".K c #141a24",
".L c #9c76e4",
".M c #000000",
".N c #000000",
".O c #000000",
".P c #000000",
".Q c #000000",
".R c #000000",
".S c #000000",
".T c #000000",
".U c #000000",
".V c #000000",
".W c #000000",
".X c #000000",
".Y c #000000",
".Z c #000000",
".0 c #000000",
".1 c #000000",
".2 c #000000",
".3 c #000000",
".4 c #000000",
".5 c #000000",
".6 c #000000",
".7 c #000000",
".8 c #000000",
"#` c #000000",
"#. c #000000",
"## c #000000",
"#a c #000000",
"#b c #000000",
"#c c #000000",
"#d c #000000",
"#e c #000000",
"#f c #000000",
"#g c #000000",
"#h c #000000",
"#i c #000000",
"#j c #000000",
"#k c #000000",
"#l c #000000",
"#m c #000000",
"#n c #000000",
"#o c #000000",
"#p c #000000",
"#q c #000000",
"#r c #000000",
"#s c #000000",
"#t c #000000",
"#u c #000000",
"#v c #000000",
"#w c #000000",
"#x c #000000",
"#y c #000000",
"#z c #000000",
"#A c #000000",
"#B c #000000",
"#C c #000000",
"#D c #000000",
"#E c #000000",
"#F c #000000",
"#G c #000000",
"#H c #000000",
"#I c #000000",
"#J c #000000",
"#K c #000000",
"#L c #000000",
"#M c #000000",
"#N c #000000",
"#O c #000000",
"#P c #000000",
"#Q c #000000",
"#R c #000000",
"#S c #000000",
"#T c #000000",
"#U c #000000",
"#V c #000000",
"#W c #000000",
"#X c #000000",
"#Y c #000000",
"#Z c #000000",
"#0 c #000000",
"#1 c #000000",
"#2 c #000000",
"#3 c #000000",
"#4 c #000000",
"#5 c #000000",
"#6 c #000000",
"#7 c #000000",
"#8 c #000000",
"a` c #000000",
"a. c #000000",
"a# c #000000",
"aa c #000000",
"ab c #000000",
"ac c #000000",
"ad c #000000",
"ae c #000000",
"af c #000000",
"ag c #000000",
"ah c #000000",
"ai c #000000",
"aj c #000000",
"ak c #000000",
"al c #000000",
"am c #000000",
"an c #000000",
"ao c #000000",
"ap c #000000",
"aq c #000000",
"ar c #000000",
"as c #000000",
"at c #000000",
"au c #000000",
"av c #000000",
"aw c #000000",
"ax c #000000",
"ay c #000000",
"az c #000000",
"aA c #000000",
"aB c #000000",
"aC c #000000",
"aD c #000000",
"aE c #000000",
"aF c #000000",
"aG c #000000",
"aH c #000000",
"aI c #000000",
"aJ c #000000",
"aK c #000000",
"aL c #000000",
"aM c #000000",
"aN c #000000",
"aO c #000000",
"aP c #000000",
"aQ c #000000",
"aR c #000000",
"aS c #000000",
"aT c #000000",
"aU c #000000",
"aV c #000000",
"aW c #000000",
"aX c #000000",
"aY c #000000",
"aZ c #000000",
"a0 c #000000",
"a1 c #000000",
"a2 c #000000",
"a3 c #000000",
"a4 c #000000",
"a5 c #000000",
"a6 c #000000",
"a7 c #000000",
"a8 c #000000",
/* pixels */
"````````````````````````````````````````````````````````````````",
"````````````````````````````````````````````````````````````````",
"````````````````````````````````````````````````````````````````",
"````````````````````````````````````````````````````````````````",
"````````````````````````````````````````````````````````````````",
"``````````````````````````.a.a`B`4.a.a``````````````````````````",
"````````````````````````.n`2`z`j.l`z`2.a.m``````````````````````",
"````````````````````````.a.x`s`I.B.v`y.C.a``````````````````````",
"````````````````````.K.t.E.D`I`M.e`U`x`L`2`b````````````````````",
"````````````````````.t.C`Q.c.o.p.p`h.b.v`z.a````````````````````",
"`````````````````````t.C.f`5.p.L.L.p.L.B`j`4````````````````````",
"`````````````````````B.C`.`o.p.p.L.p`h`I`j`B````````````````````",
"``````````````````.a`2`L`1.c`U.p`6.o.B`I`q`z.a``````````````````",
"``````````````````.a`2`N`E`I.B`o`o`C.y.c.s.E.a``````````````````",
"``````````````````.a`2.G`k`I`I`E.y.y`I.H`s`O.a``````````````````",
"```````````````````B`z`Z`i`..i`I`I.c.H`Z`N`O`t``````````````````",
"````````````````.a.x`Z`Z.G`q.q.D.q.D`q.G`Z`Z`r.a.n``````````````",
"````````````````.a`r`N.G`Z`i`i`Z`Z`i`i`Z`N.G`i`r`2.a````````````",
"````````````````.a`r`s.G`Z`q.q`Z.G`q.q`Z`Z`q.q`N.J.K````````````",
"`````````````````4.``I`Z`i.v`E`Z`i.v`E.G`i.v`E`Z`2`t````````````",
"`````````````````B.`.i`N`S`X.z`k`1`I`I.y`S`U.z.i.l`B````````````",
"````````````````.a`Y`..x.D`V`F.o.b.H`..v.H.o`h.``z`4````````````",
"````````````````.a.x`y`l`y`s`I.z.B`8`i.G`I.o`a`4`n``````````````",
"```````````````````B`2`N`Z.G`Z.G`Z`i`q`I`M.o`..C`t``````````````",
"``````````````````.a`2`Z`k`8`i`i`Z`i`q`I`P`g`l`l`t``````````````",
"``````````````````.a`z`8`X.B`s`Z`i.D`S`I`V.u`4``````````````````",
"```````````````````4.l`U.L.z`I.q`Z.v`H`I.s.x.a``````````````````",
"```````````````````4`D.p.L.p`h`I`q`..c`I.A.``B``````````````````",
"```````````````````4.l`U.p.z.B.s`z.w.I`3`v`0`t``````````````````",
"``````````````````.a`z`G`u`d`m.x.d`e.g`#.#.m.t``````````````````",
"``````````````````.K`2`J.h`c`#`t``.K`b`b.C.t````````````````````",
"`````````````````````t.C.t.C.t``````````````````````````````````"
};
