/* XPM */
static char *back3_xpm[] = {
/* width height num_colors chars_per_pixel */
"    32    32      256            2",
/* colors */
"`` c #040204",
"`. c #5c467c",
"`# c #4c1e34",
"`a c #8c62bc",
"`b c #141e24",
"`c c #8c4274",
"`d c #6c222c",
"`e c #34223c",
"`f c #4c3a64",
"`g c #7c56a4",
"`h c #74427c",
"`i c #3c1a2c",
"`j c #9472dc",
"`k c #0c1214",
"`l c #241e24",
"`m c #84529c",
"`n c #442e54",
"`o c #5c3264",
"`p c #744a8c",
"`q c #1c1a1c",
"`r c #4c2a4c",
"`s c #34263c",
"`t c #9c5a8c",
"`u c #742e54",
"`v c #0c1a1c",
"`w c #242624",
"`x c #643a6c",
"`y c #5c2e5c",
"`z c #9c7aec",
"`A c #8c5aac",
"`B c #44264c",
"`C c #946acc",
"`D c #7c4684",
"`E c #64326c",
"`F c #4c2e5c",
"`G c #141214",
"`H c #7c4a8c",
"`I c #3c2644",
"`J c #6c3a74",
"`K c #5c4e8c",
"`L c #74468c",
"`M c #9c72dc",
"`N c #2c2234",
"`O c #8c56a4",
"`P c #2c2634",
"`Q c #141624",
"`R c #6c4284",
"`S c #9466c4",
"`T c #1c1e1c",
"`U c #7c321c",
"`V c #543e6c",
"`W c #744684",
"`X c #24222c",
"`Y c #8456a4",
"`Z c #5c3664",
"`0 c #4c2e54",
"`1 c #342a3c",
"`2 c #141a14",
"`3 c #a47ef4",
"`4 c #8c5ebc",
"`5 c #946ecc",
"`6 c #64366c",
"`7 c #542e5c",
"`8 c #141614",
".` c #7c4e94",
".. c #6c3e7c",
".# c #9c76dc",
".a c #0c0e0c",
".b c #8c66c4",
".c c #844e94",
".d c #6c2a4c",
".e c #441e2c",
".f c #543664",
".g c #7c5eb4",
".h c #744284",
".i c #241e2c",
".j c #8452a4",
".k c #44364c",
".l c #5c326c",
".m c #744e8c",
".n c #1c1a24",
".o c #4c2a54",
".p c #945eb4",
".q c #842a54",
".r c #24262c",
".s c #643a74",
".t c #5c2e64",
".u c #9c7ef4",
".v c #8c5eb4",
".w c #442a4c",
".x c #7c468c",
".y c #7c4a94",
".z c #3c2a4c",
".A c #6c3a7c",
".B c #2c2a3c",
".C c #6c4684",
".D c #1c1e24",
".E c #342a44",
".F c #141a1c",
".G c #946ed4",
".H c #643674",
".I c #542e64",
".J c #14161c",
".K c #9c76e4",
".L c #000000",
".M c #000000",
".N c #000000",
".O c #000000",
".P c #000000",
".Q c #000000",
".R c #000000",
".S c #000000",
".T c #000000",
".U c #000000",
".V c #000000",
".W c #000000",
".X c #000000",
".Y c #000000",
".Z c #000000",
".0 c #000000",
".1 c #000000",
".2 c #000000",
".3 c #000000",
".4 c #000000",
".5 c #000000",
".6 c #000000",
".7 c #000000",
".8 c #000000",
"#` c #000000",
"#. c #000000",
"## c #000000",
"#a c #000000",
"#b c #000000",
"#c c #000000",
"#d c #000000",
"#e c #000000",
"#f c #000000",
"#g c #000000",
"#h c #000000",
"#i c #000000",
"#j c #000000",
"#k c #000000",
"#l c #000000",
"#m c #000000",
"#n c #000000",
"#o c #000000",
"#p c #000000",
"#q c #000000",
"#r c #000000",
"#s c #000000",
"#t c #000000",
"#u c #000000",
"#v c #000000",
"#w c #000000",
"#x c #000000",
"#y c #000000",
"#z c #000000",
"#A c #000000",
"#B c #000000",
"#C c #000000",
"#D c #000000",
"#E c #000000",
"#F c #000000",
"#G c #000000",
"#H c #000000",
"#I c #000000",
"#J c #000000",
"#K c #000000",
"#L c #000000",
"#M c #000000",
"#N c #000000",
"#O c #000000",
"#P c #000000",
"#Q c #000000",
"#R c #000000",
"#S c #000000",
"#T c #000000",
"#U c #000000",
"#V c #000000",
"#W c #000000",
"#X c #000000",
"#Y c #000000",
"#Z c #000000",
"#0 c #000000",
"#1 c #000000",
"#2 c #000000",
"#3 c #000000",
"#4 c #000000",
"#5 c #000000",
"#6 c #000000",
"#7 c #000000",
"#8 c #000000",
"a` c #000000",
"a. c #000000",
"a# c #000000",
"aa c #000000",
"ab c #000000",
"ac c #000000",
"ad c #000000",
"ae c #000000",
"af c #000000",
"ag c #000000",
"ah c #000000",
"ai c #000000",
"aj c #000000",
"ak c #000000",
"al c #000000",
"am c #000000",
"an c #000000",
"ao c #000000",
"ap c #000000",
"aq c #000000",
"ar c #000000",
"as c #000000",
"at c #000000",
"au c #000000",
"av c #000000",
"aw c #000000",
"ax c #000000",
"ay c #000000",
"az c #000000",
"aA c #000000",
"aB c #000000",
"aC c #000000",
"aD c #000000",
"aE c #000000",
"aF c #000000",
"aG c #000000",
"aH c #000000",
"aI c #000000",
"aJ c #000000",
"aK c #000000",
"aL c #000000",
"aM c #000000",
"aN c #000000",
"aO c #000000",
"aP c #000000",
"aQ c #000000",
"aR c #000000",
"aS c #000000",
"aT c #000000",
"aU c #000000",
"aV c #000000",
"aW c #000000",
"aX c #000000",
"aY c #000000",
"aZ c #000000",
"a0 c #000000",
"a1 c #000000",
"a2 c #000000",
"a3 c #000000",
"a4 c #000000",
"a5 c #000000",
"a6 c #000000",
"a7 c #000000",
"a8 c #000000",
/* pixels */
"````````````````````````````````````````````````````````````````",
"````````````````````````````````````````````````````````````````",
"````````````````````````````````````````````````````````````````",
"````````````````````````````````````````````````````````````````",
"````````````````````````````````````````````````````````````````",
"``````````````````````````.F.F.J`8.F.F``````````````````````````",
"`````````````````````````v`N`s`1.E`s`N.F`X``````````````````````",
"````````````````````````.J`I`J`m.j.h.o.D.F``````````````````````",
"````````````````````.F.D`B`x.j`M.#.v`h`7`N`b````````````````````",
"````````````````````.n.D.s.j`C`z`z`j`A.h`s.F````````````````````",
"`````````````````````q.n.C`C`3.K.K`z.K.j`1`8````````````````````",
"````````````````````.J.D`h`S`z.K`z`z`j`m`1.J````````````````````",
"``````````````````.F`N`7`H`Y.v`z.u`C`m`m`6`s.F``````````````````",
"``````````````````.F`N`E.``m.j`S.b`A.c.j.A.w.F``````````````````",
"``````````````````.F`N.l.x`m`m.c.`.c`m.``J`I.F``````````````````",
"``````````````````.J`s`o.t`R`m`m`m`Y.y.t`E.z`q``````````````````",
"`````````````````k.z`7.l`o`6.H.s.H.s`6.l`o`o.w.D.n``````````````",
"`````````````G.D`s`7`E`o`E`o.t`o`o.t.t`o`E`E`7.D.n``````````````",
"`````````````Q.i`7.s`6.l`o`6.H`o.l`6.H`o`o.H.f.n.n``````````````",
"````````````.n.D.o.x.``o.t.h.`.t.t.h.``o.t`L`p.D.n``````````````",
"`````````````Q`X`R`S`C.y`6`R`O.y`W`a.G.c.H.x`p`l.F``````````````",
"`````````````T.D`n.g`z`m`6`6`L`Y`S`C`a.h.w.f...D.n``````````````",
"````````````````.a`..#`O..`o`6`H`C.g`h.t`N`I.o.n.n``````````````",
"`````````````````8`f.p.K.v...t.l`o`E.t.l`E.z`q``````````````````",
"`````````````````2`l`f`3.v...I`o`o.t`6`H.H`I`q``````````````````",
"```````````````````k`P`g.j.y...t.t`6`L`S.y`0.F``````````````````",
"``````````````````.F`N`E.y`O.``E`6`L`S`z`S`V`8``````````````````",
"``````````````````.J.E.j`m.j.`.t`H`S`z.K`3`K`G``````````````````",
"``````````````````.F`P.k`u.q.d`N`o.y.b.u`C`Z.J``````````````````",
"``````````````````.n`X.r.e`#`i`b`e`o`c`t`c`0.F``````````````````",
"````````````````````.J.n`b.D.F```v`i`d`U`d.e.F``````````````````",
"``````````````````````````````````.n.i.n.D.n````````````````````"
};
